<svg version="1.1" id="Layer_1" xmlns="http://www.w3.org/2000/svg" xmlns:xlink="http://www.w3.org/1999/xlink" x="0px" y="0px"
	 width="100%" viewBox="0 0 364 390" enable-background="new 0 0 364 390" xml:space="preserve">
<path fill="#000101" opacity="1.000000" stroke="none" 
	d="
M199.000000,391.000000 
	C132.666672,391.000000 66.833359,391.000000 1.000026,391.000000 
	C1.000018,261.000031 1.000018,131.000076 1.000009,1.000079 
	C122.333275,1.000053 243.666550,1.000053 364.999878,1.000026 
	C364.999908,130.999924 364.999908,260.999847 364.999939,390.999878 
	C309.833344,391.000000 254.666672,391.000000 199.000000,391.000000 
M192.978836,218.283951 
	C192.809113,219.176743 192.639404,220.069550 192.552887,220.834000 
	C192.552887,220.834000 192.436523,220.549698 193.539169,220.186005 
	C190.524323,215.020584 186.095779,210.473785 187.263550,203.747620 
	C200.023438,202.230408 209.688049,195.306488 218.519348,186.767746 
	C220.448441,189.463989 222.837173,190.305817 226.187546,189.438293 
	C227.829041,189.013260 229.888931,189.522141 231.575256,190.124237 
	C233.698212,190.882233 235.632751,192.167938 238.013962,193.800583 
	C244.628036,197.537750 251.242096,201.274933 258.213104,205.483353 
	C259.842468,207.587982 261.760559,209.533218 263.031464,211.835709 
	C264.802795,215.044754 267.154755,216.688614 270.717102,215.603394 
	C274.049896,214.588104 275.428101,211.989029 274.832672,208.603180 
	C274.206726,205.043655 271.421722,203.035812 268.351501,203.989532 
	C264.433624,205.206589 261.649170,203.476486 258.013489,201.677429 
	C257.126556,200.854034 256.239624,200.030624 254.182556,198.120926 
	C260.210571,197.017853 264.943329,196.151794 270.105072,195.815323 
	C271.364410,196.618759 272.632172,197.409378 273.881592,198.227951 
	C278.432617,201.209579 284.173431,202.654739 285.828156,209.219269 
	C286.151672,210.502518 290.983521,211.953781 292.839996,211.179443 
	C294.698303,210.404312 296.403076,206.952988 296.436340,204.649628 
	C296.486603,201.164322 293.067200,198.984543 290.133972,199.979645 
	C285.486267,201.556381 282.614044,199.062836 279.231140,197.186905 
	C276.773010,195.823730 274.245087,194.586365 271.158264,193.033127 
	C268.098999,192.974777 265.039764,192.916412 262.000092,192.040405 
	C261.962494,190.948334 261.924896,189.856247 261.943481,187.948334 
	C262.137939,181.540924 260.676178,180.082764 254.010025,179.396484 
	C254.013275,178.763916 254.016525,178.131332 254.802979,177.333023 
	C256.874756,176.909988 258.946564,176.486954 261.350250,176.402328 
	C261.895203,176.286499 262.440155,176.170670 263.716766,176.171524 
	C265.539032,176.551727 267.361328,176.931946 269.424347,177.972763 
	C271.334808,179.482407 273.381256,180.852173 275.117828,182.540665 
	C276.887177,184.261032 278.715515,186.099228 279.865143,188.236954 
	C281.635193,191.528412 283.746796,193.697464 287.678802,192.490189 
	C291.280304,191.384384 292.663757,188.600235 291.760193,185.107224 
	C290.760834,181.244095 287.886841,180.132431 284.059540,180.808350 
	C282.533844,181.077805 280.816742,181.172180 279.361206,180.747803 
	C275.953461,179.754242 272.651123,178.399033 269.753479,176.634247 
	C266.905792,175.377686 263.931610,172.858948 261.236908,173.128998 
	C255.735947,173.680283 250.385422,175.732559 244.172638,177.069504 
	C243.135223,177.286636 242.097824,177.503754 240.653488,177.518433 
	C240.127823,177.763397 239.602142,178.008362 238.326920,178.250183 
	C234.140747,179.939056 229.982101,182.817123 225.793137,178.099747 
	C225.285690,177.528290 223.926285,177.713348 223.162003,176.674606 
	C226.986420,166.538025 227.481125,156.281296 224.374130,145.860992 
	C223.908737,144.300125 223.789978,142.635895 224.278015,140.929260 
	C225.927597,139.727859 227.577179,138.526443 229.761581,136.882080 
	C231.262894,134.965424 232.565628,132.836670 234.321945,131.192398 
	C236.044388,129.579788 238.228195,128.460022 240.851257,126.841881 
	C246.733521,123.446678 252.615784,120.051468 259.261047,116.486717 
	C262.204956,116.071297 265.138947,115.426819 268.095276,115.299324 
	C271.669220,115.145187 274.747314,113.837341 274.814056,110.235039 
	C274.855927,107.975372 273.176453,104.881630 271.290619,103.580109 
	C268.594666,101.719490 264.678833,102.765511 263.885376,105.931816 
	C262.768616,110.388184 259.313995,112.048775 255.798889,114.798531 
	C255.213455,115.196609 254.628006,115.594696 253.356003,115.664330 
	C252.935165,115.382019 252.514328,115.099709 252.377930,114.172531 
	C252.733292,112.336990 253.088654,110.501442 253.928162,108.130417 
	C254.618317,101.348686 260.288483,99.268471 265.828491,96.184586 
	C269.037628,94.503708 272.055603,93.274231 276.093872,94.028206 
	C277.885834,94.362762 281.506500,91.355804 282.176880,89.204849 
	C282.714294,87.480507 280.593079,83.924904 278.677979,82.680183 
	C275.984833,80.929733 272.069855,81.959557 271.252991,85.157204 
	C270.236420,89.136696 267.478485,91.028648 264.148315,93.567863 
	C259.916351,96.620529 253.892944,97.280365 251.084930,103.173317 
	C249.899597,103.836098 250.210068,107.153351 247.109024,104.784340 
	C246.191772,104.140816 245.274521,103.497292 243.962891,102.394127 
	C242.485779,102.537842 241.008652,102.681557 238.833664,102.939285 
	C237.843018,104.703323 236.055740,106.469246 236.059906,108.230927 
	C236.065308,110.522194 237.493912,112.810097 237.985794,115.509369 
	C237.954773,116.014565 237.923737,116.519753 237.520706,117.656548 
	C237.448822,118.135590 237.376938,118.614632 236.914810,119.699249 
	C236.522430,121.101181 236.310303,122.587189 235.703156,123.888962 
	C234.022934,127.491508 231.526047,129.875610 227.212631,128.240494 
	C227.159882,127.850662 227.107147,127.460831 227.372711,126.494164 
	C227.952194,124.617065 228.531662,122.739975 229.352570,120.463928 
	C229.457123,119.861794 229.561676,119.259666 230.034210,118.244675 
	C230.096863,117.705917 230.159500,117.167152 230.615952,116.302200 
	C230.766479,115.525803 230.917007,114.749405 231.283554,113.444664 
	C231.229660,113.073608 231.175751,112.702553 231.313690,111.911270 
	C231.252869,111.503487 231.192047,111.095703 231.745331,110.070457 
	C231.867538,109.526649 231.989731,108.982849 232.413345,107.769547 
	C233.401169,104.482735 234.388992,101.195915 235.999115,97.528130 
	C239.336685,95.366615 242.674255,93.205101 246.707108,90.955658 
	C248.441605,89.856339 250.176117,88.757019 252.718857,87.696579 
	C253.839920,87.994667 254.944641,88.407982 256.085052,88.569618 
	C259.756226,89.089912 262.367340,87.626701 263.158813,83.950256 
	C263.878937,80.605423 262.562073,77.933136 259.154175,76.925812 
	C255.580200,75.869408 252.937668,77.221001 251.702652,80.826881 
	C251.275330,82.074516 251.123962,83.416664 250.164581,84.882011 
	C248.261520,86.093773 246.358444,87.305527 243.800995,88.732605 
	C240.432037,90.746857 237.063065,92.761101 233.124207,95.249992 
	C230.993774,103.203003 228.863342,111.156013 226.361069,119.756210 
	C226.020187,121.198761 225.679291,122.641319 224.945572,124.486275 
	C224.749359,125.013557 224.553146,125.540848 224.038834,126.744186 
	C222.049118,128.645630 220.059402,130.547089 217.491974,132.028580 
	C209.519958,122.087830 198.978561,116.568245 186.964828,113.315651 
	C186.511414,110.861107 186.214920,108.363632 185.558701,105.964569 
	C184.951309,103.744087 183.648178,101.688324 183.220444,99.451218 
	C182.759888,97.042381 182.960846,94.507057 183.116241,91.123146 
	C183.050461,87.085594 182.984680,83.048035 183.129486,78.151550 
	C183.074188,76.093948 183.018890,74.036354 183.226242,71.263039 
	C183.229538,67.770653 183.486618,64.622169 186.354141,61.789440 
	C188.803085,59.370209 188.220261,55.624325 185.232742,54.094082 
	C183.188080,53.046772 179.588882,53.164585 177.596603,54.325943 
	C174.657761,56.039055 174.729599,59.360390 176.893021,62.151436 
	C177.693268,63.183842 178.833115,63.953007 179.621368,65.755562 
	C179.566605,67.512634 179.814148,69.351097 179.369339,71.003159 
	C178.950775,72.557800 177.801971,73.915833 176.494507,74.851540 
	C172.325607,70.750092 167.376205,67.061752 168.921631,59.172405 
	C169.535126,54.132942 167.759491,48.786755 172.538925,44.380638 
	C174.888901,42.214230 173.635162,38.193150 170.666519,36.742752 
	C168.715149,35.789379 165.387573,35.891838 163.504456,36.969139 
	C160.620468,38.619034 159.807755,42.523815 162.160248,44.760517 
	C166.255997,48.654678 165.234940,53.154537 165.101273,58.215725 
	C165.221527,58.736519 165.341782,59.257313 165.588852,60.686546 
	C165.618484,64.800484 164.963547,69.118782 168.658493,72.597382 
	C167.407669,73.600838 166.156845,74.604294 164.314865,76.024902 
	C161.009979,78.198624 160.629272,81.252281 160.616257,84.984070 
	C159.912537,85.195633 159.208817,85.407188 158.472305,85.487770 
	C158.472305,85.487770 158.560272,85.385338 158.732086,84.606064 
	C154.303711,76.726151 155.683044,68.449661 157.442764,59.531582 
	C157.957443,58.154545 159.219482,56.497433 158.830368,55.459099 
	C158.033936,53.333851 156.736221,50.697243 154.916382,49.865837 
	C153.329971,49.141068 149.945160,49.934067 148.808792,51.282036 
	C147.516022,52.815563 146.767242,57.121178 147.633362,57.777069 
	C152.432388,61.411243 150.634277,66.559723 151.368286,71.911240 
	C151.910751,76.040131 151.034805,81.321556 153.271271,84.073982 
	C159.131073,91.285629 166.349182,97.393555 173.361893,104.522598 
	C174.157074,105.310715 174.952240,106.098824 175.623962,107.627335 
	C175.687698,108.120476 175.751450,108.613609 175.532272,109.797234 
	C175.818939,111.250359 176.105591,112.703476 175.633347,114.478287 
	C164.321930,116.437668 154.764481,121.568726 147.045624,130.125320 
	C146.353088,130.893021 145.106796,131.161133 143.778214,131.041779 
	C143.041763,130.572968 142.305298,130.104172 141.092499,129.177505 
	C134.049789,131.298645 129.009674,126.801208 123.470657,123.892044 
	C122.027283,123.133972 120.436661,122.656273 118.427582,121.596359 
	C114.659126,119.302567 110.890671,117.008781 106.764137,114.165710 
	C103.702667,112.080490 100.288681,110.686287 99.365250,106.132942 
	C99.060692,104.631210 94.922417,102.930565 92.621506,103.043327 
	C89.327553,103.204758 87.129936,106.343788 88.139885,109.467331 
	C88.840820,111.635139 91.420807,113.949715 93.661301,114.694519 
	C97.329048,115.913795 101.403709,115.909042 105.540016,117.034798 
	C106.458992,117.703392 107.377968,118.371986 108.707939,119.339607 
	C106.928581,120.288925 105.944939,120.813721 104.192406,121.404228 
	C97.378830,124.263069 91.039284,123.819504 84.968391,118.152023 
	C81.873322,116.079651 78.703743,114.475929 77.724113,110.038712 
	C77.043358,106.955193 73.657761,105.860657 70.354347,107.012337 
	C67.036064,108.169212 65.719452,110.788490 66.384659,114.066887 
	C67.060020,117.395332 69.681549,119.825218 72.814148,118.727737 
	C77.414520,117.116043 80.351418,119.843575 84.269989,121.851479 
	C86.652336,123.203247 88.898827,125.011856 91.456940,125.772568 
	C93.805061,126.470848 96.489113,126.039528 99.853889,126.070862 
	C100.942207,125.878174 102.030533,125.685493 103.163788,126.513916 
	C103.204407,126.852180 103.245026,127.190453 102.857140,128.088898 
	C102.469551,130.673080 101.291855,133.498795 101.981148,135.753799 
	C102.417137,137.180161 106.073074,138.954071 107.508942,138.433228 
	C109.705086,137.636581 111.231407,134.993393 113.832352,133.017654 
	C119.696632,131.324112 125.470505,127.747826 131.962036,132.861832 
	C132.061554,133.610992 132.161072,134.360138 131.641968,135.259140 
	C131.455948,135.361176 131.269913,135.463226 130.315704,135.421173 
	C121.714630,137.622360 113.146683,139.969894 104.490906,141.929520 
	C102.104973,142.469696 99.457100,141.852905 96.530846,141.257706 
	C95.565048,140.604568 94.617874,139.921661 93.630249,139.303375 
	C89.128326,136.485092 83.746704,135.015686 82.085564,128.612854 
	C81.281151,125.512215 77.113022,124.605751 74.492065,126.638908 
	C72.666389,128.055130 71.165970,131.292740 71.353508,133.565445 
	C71.618690,136.778870 74.667152,139.019897 77.959686,137.964905 
	C81.730583,136.756668 84.379913,138.229523 87.281975,139.910492 
	C90.449486,141.745209 93.675423,143.479034 97.335396,145.843201 
	C98.567520,146.246399 99.957664,147.240402 101.006882,146.959763 
	C109.784187,144.611954 118.498833,142.029892 127.488907,139.444839 
	C127.488907,139.444839 127.617729,139.211075 128.055161,139.534012 
	C129.192780,139.162872 130.330399,138.791733 132.128815,138.432724 
	C134.483688,139.339859 136.838547,140.247009 139.376495,141.944702 
	C135.953110,153.273285 135.324692,164.585495 139.481766,175.900482 
	C139.675446,176.427673 139.300354,177.163818 138.376999,177.814896 
	C136.899063,178.774857 134.229630,179.637070 134.141525,180.711060 
	C133.661942,186.556488 128.528229,187.571243 124.487541,190.321060 
	C123.900650,190.784378 123.313766,191.247696 122.700050,191.718918 
	C122.700050,191.718918 122.673508,191.730392 121.888092,191.843613 
	C120.917946,191.912186 119.947800,191.980759 118.689667,191.306244 
	C117.655579,188.191956 116.507271,185.110031 115.613716,181.955933 
	C114.215424,177.020172 111.587646,172.308044 115.670364,167.012161 
	C117.662346,164.428268 115.762238,161.205292 112.843765,159.513428 
	C109.776489,157.735352 106.983696,158.608429 104.929779,161.273071 
	C102.799988,164.036148 102.878830,167.421448 105.650780,169.243484 
	C109.186951,171.567856 109.768471,174.869995 110.738876,178.355347 
	C111.714127,181.858124 112.793251,185.406158 114.449844,188.612503 
	C115.230652,190.123764 117.469406,190.881744 119.238800,192.714203 
	C113.822052,196.131485 108.405312,199.548767 102.198891,203.114746 
	C100.019836,203.308960 97.810310,203.827591 95.668381,203.626434 
	C91.804077,203.263565 89.086823,204.527985 88.101570,208.323425 
	C87.211739,211.751297 88.970245,214.311951 92.068344,215.369293 
	C95.722626,216.616440 98.308960,214.934692 100.089310,211.470535 
	C101.226387,209.258057 103.018326,207.382156 105.187462,205.163132 
	C106.853905,204.260498 108.520340,203.357880 110.438583,203.319473 
	C110.564079,203.592026 110.689568,203.864578 110.564301,204.758774 
	C110.501251,205.199661 110.438202,205.640564 109.994827,206.338989 
	C109.971733,206.898315 109.948647,207.457642 109.730637,208.498993 
	C109.692352,208.841797 109.654068,209.184601 109.135979,210.037216 
	C108.435486,212.366196 107.734985,214.695175 106.470383,217.264832 
	C105.657921,217.872299 104.845467,218.479752 103.310905,219.082886 
	C97.547287,221.305939 92.984787,226.916916 85.541519,224.787064 
	C84.448174,224.474213 80.824036,228.315536 80.792358,230.273926 
	C80.759277,232.319046 83.463547,235.865372 85.315453,236.106033 
	C87.507111,236.390854 90.317879,234.146301 92.397453,232.435516 
	C94.510986,230.696777 95.842400,228.021591 97.917374,226.217834 
	C100.135498,224.289642 102.822197,222.900482 105.884598,221.111908 
	C106.601669,220.745605 107.318741,220.379288 108.784241,219.992691 
	C110.017754,218.642365 111.334793,217.357437 112.459152,215.921631 
	C113.408386,214.709396 114.134163,213.322189 115.295639,212.620407 
	C117.321190,216.413010 120.385025,218.243042 124.275017,215.846512 
	C128.017029,213.541138 128.163010,210.133957 125.855072,206.333923 
	C125.135017,205.148331 125.353020,203.206924 125.575821,201.674637 
	C126.003326,198.734619 126.741470,195.839767 127.896767,192.429810 
	C130.250076,191.163544 132.603394,189.897293 136.038055,188.049194 
	C135.267014,191.909698 134.849106,194.002136 134.014633,196.493256 
	C133.974411,197.044098 133.934174,197.594940 133.584000,198.747513 
	C133.517487,199.191345 133.450974,199.635193 132.895233,200.630203 
	C132.303726,202.679092 131.752487,204.740646 131.112915,206.774414 
	C129.418808,212.161438 127.686523,217.536469 125.243240,222.943573 
	C121.076820,225.414200 116.910400,227.884811 111.952446,230.545364 
	C110.187775,230.379333 108.424416,230.197479 106.658150,230.050598 
	C103.008797,229.747147 100.370438,231.191605 99.628601,234.871536 
	C98.942802,238.273514 100.569969,240.882294 103.832909,241.824371 
	C107.326065,242.832932 110.017670,241.313858 111.461975,237.925537 
	C112.103485,236.420532 112.557594,234.835663 113.804001,233.125565 
	C117.956207,230.668625 122.108414,228.211670 126.956856,225.530807 
	C131.398178,222.835312 131.887115,218.031189 132.980286,213.698334 
	C134.345474,208.287354 135.211136,202.750320 136.878326,196.780304 
	C137.128555,195.689346 137.058380,194.342499 137.687836,193.554428 
	C139.750305,190.972244 142.067139,188.593231 144.955750,186.402740 
	C153.627838,195.602768 163.532181,202.575043 176.313034,204.627136 
	C174.785294,208.017899 175.160904,210.829544 178.242050,213.363693 
	C179.272903,214.211533 179.693420,216.132538 179.864029,217.623505 
	C180.179123,220.377075 180.103546,223.175354 179.927734,226.714218 
	C180.021545,227.500122 180.115341,228.286011 180.025650,229.421371 
	C180.102737,229.931473 180.179810,230.441574 179.988571,231.811981 
	C180.000961,234.209763 180.013336,236.607544 179.663300,239.716278 
	C179.767044,243.811584 179.870789,247.906906 179.805878,252.676880 
	C179.008453,253.678833 178.252502,254.717422 177.405838,255.675888 
	C174.854828,258.563843 174.263916,261.580444 177.269165,264.407257 
	C179.961197,266.939392 183.031158,266.890839 185.683319,264.332428 
	C188.426544,261.686188 188.057800,258.797424 185.738251,255.945267 
	C184.736313,254.713272 183.946198,253.309021 183.228714,251.236328 
	C183.143417,250.482956 183.058105,249.729584 183.058685,248.129242 
	C183.062592,246.426590 183.066498,244.723953 183.776260,243.035645 
	C185.165405,243.867020 186.554550,244.698410 188.216660,246.031357 
	C189.295135,246.709137 190.373611,247.386917 191.439453,248.882294 
	C192.413239,252.563156 193.387024,256.244019 194.127487,260.819153 
	C193.256393,264.788239 195.654617,269.260315 191.411850,272.796539 
	C188.509720,275.215393 188.678406,278.793335 191.620285,281.514069 
	C194.349274,284.037903 197.371048,283.955780 200.001007,281.297241 
	C202.850693,278.416565 202.358841,275.458771 199.913788,272.467041 
	C198.945023,271.281708 198.397949,269.751740 197.883041,267.496399 
	C197.712250,265.048767 197.541443,262.601166 197.323013,259.235260 
	C197.338242,256.486725 197.353455,253.738174 197.645401,250.470795 
	C196.100143,247.937683 194.554886,245.404556 193.835587,243.007065 
	C200.243866,243.185120 202.149368,241.111511 201.771759,233.770386 
	C202.694641,230.240524 200.746735,228.190170 199.045547,226.858841 
	C198.177673,224.966400 197.309799,223.073959 196.223862,220.725266 
	C195.830811,220.419266 195.437759,220.113266 194.911087,219.313004 
	C194.624649,219.147018 194.338226,218.981033 192.978836,218.283951 
M208.965057,234.104172 
	C207.779160,233.268204 206.593277,232.432236 205.407379,231.596268 
	C205.093201,231.977295 204.779022,232.358322 204.464844,232.739365 
	C205.587372,233.970184 206.709915,235.201004 208.009689,237.300812 
	C208.215591,242.838104 208.421509,248.375381 208.335220,254.640991 
	C207.513199,256.017181 206.829849,257.503510 205.841568,258.747650 
	C203.441895,261.768616 202.969559,264.849121 205.778214,267.697968 
	C208.416397,270.373871 211.521530,270.280670 214.247986,267.764465 
	C217.265137,264.979919 216.761917,261.937500 214.471695,258.852936 
	C213.325302,257.308929 212.445908,255.566696 211.640137,253.009293 
	C211.682236,248.353119 211.910126,243.686752 211.655838,239.046814 
	C211.577209,237.611862 210.186478,236.248825 208.965057,234.104172 
M132.350662,344.356689 
	C132.350662,344.356689 132.297684,344.305573 132.995224,344.220673 
	C137.993866,342.078918 140.777863,338.203583 142.124268,332.645721 
	C142.102036,332.092651 142.079819,331.539551 142.206879,330.109741 
	C142.529343,322.915222 140.682159,316.867371 133.125046,313.166840 
	C132.379578,313.029327 131.634109,312.891815 130.273026,312.460632 
	C129.824615,312.403381 129.376221,312.346130 128.535751,311.921631 
	C127.719696,312.052307 126.903648,312.183014 125.420685,312.328064 
	C125.002098,312.470612 124.583511,312.613159 123.577484,312.585510 
	C122.876122,312.934052 122.174751,313.282623 120.811096,313.765808 
	C119.766541,314.551514 118.677139,315.284668 117.684395,316.131165 
	C108.146530,324.263885 112.133530,341.925995 121.827072,344.698486 
	C122.551895,344.800781 123.276711,344.903076 124.837219,345.234375 
	C126.552757,345.178802 128.268295,345.123230 130.377319,345.295929 
	C131.018387,345.000824 131.659470,344.705688 132.350662,344.356689 
M242.269638,323.066132 
	C241.938278,324.070251 241.606918,325.074371 240.912842,326.716827 
	C239.739655,328.742249 238.566467,330.767670 236.785553,333.842255 
	C234.132996,327.585754 232.175827,322.534668 229.868408,317.649017 
	C227.547058,312.733826 224.074936,311.818207 219.950348,314.358093 
	C222.622192,324.384399 222.405197,334.196014 219.233566,344.643616 
	C221.711823,344.499878 223.844116,344.376190 225.528870,344.278473 
	C225.528870,336.902649 225.528870,330.258850 225.528870,323.615082 
	C225.804520,323.506714 226.080170,323.398376 226.355835,323.290009 
	C229.308136,329.956512 232.260437,336.623047 235.212738,343.289551 
	C235.799164,343.163513 236.385605,343.037476 236.972031,342.911407 
	C239.000931,337.949615 241.029831,332.987793 243.535858,327.489929 
	C244.317673,325.689575 245.099472,323.889252 246.503937,322.511810 
	C246.873184,322.847839 247.242432,323.183899 247.495148,324.368896 
	C247.225098,330.096283 246.955032,335.823639 246.265442,341.848083 
	C246.488342,342.603943 246.711258,343.359833 247.536652,344.532623 
	C249.893692,344.532623 252.250748,344.532623 253.897522,344.532623 
	C253.412186,338.764709 252.684784,333.895233 252.680634,329.025177 
	C252.676346,323.998077 253.375443,318.970337 253.785339,313.704803 
	C248.602478,310.759766 243.854675,315.613190 242.269638,323.066132 
M87.393745,334.836182 
	C89.941849,334.883636 92.489952,334.931091 95.577820,335.393219 
	C95.850945,336.249878 96.124069,337.106537 96.557335,338.770355 
	C97.070450,340.602295 97.583572,342.434204 98.821114,344.546631 
	C100.885979,344.392273 102.950844,344.237946 105.570869,344.047546 
	C105.428551,343.261597 105.286232,342.475616 104.817200,341.102783 
	C104.006500,339.748718 103.195793,338.394684 102.428001,336.452698 
	C102.027420,335.792267 101.626846,335.131836 101.170776,333.752960 
	C100.555435,332.182068 99.940094,330.611206 99.380997,328.318665 
	C97.981110,324.731445 96.581223,321.144196 95.130745,316.944427 
	C94.284943,315.871307 93.439148,314.798157 92.283928,313.303528 
	C91.449135,313.502319 90.614342,313.701111 89.249931,314.205597 
	C88.754013,315.289612 88.258095,316.373627 87.307045,317.838989 
	C87.150513,318.569733 86.993973,319.300476 86.428238,320.677429 
	C85.880974,322.610840 85.333710,324.544250 84.273766,326.936035 
	C83.732010,328.636719 83.190254,330.337402 82.261864,332.582031 
	C82.104485,333.224457 81.947105,333.866852 81.331940,334.880127 
	C81.128143,335.599457 80.924355,336.318787 80.286537,337.608856 
	C79.145233,339.052887 78.003929,340.496918 76.347710,342.067566 
	C76.554680,342.716675 76.761650,343.365784 77.466179,344.160156 
	C77.617538,344.243469 77.768906,344.326782 78.089371,344.878998 
	C78.736938,344.873108 79.384499,344.867218 80.758469,344.752289 
	C81.490814,344.781708 82.223152,344.811157 83.358330,345.270447 
	C84.125664,344.907440 84.893005,344.544434 85.660339,344.181427 
	C85.205750,343.433838 84.751167,342.686279 84.019646,341.273071 
	C84.821968,339.058716 85.624290,336.844391 87.393745,334.836182 
M184.324158,315.726166 
	C187.017258,325.228546 186.774658,334.657928 183.691406,344.750916 
	C190.267639,344.809814 196.959976,346.205200 203.433670,343.239197 
	C209.441147,340.486816 212.544952,334.289368 211.895462,326.670593 
	C211.375961,320.576355 208.197052,316.369324 202.595413,314.421692 
	C196.468857,313.890442 190.342667,313.353943 184.209122,312.921875 
	C184.160873,312.918488 184.012604,314.334930 184.324158,315.726166 
M160.495468,312.877136 
	C151.917557,316.197815 147.940704,322.559296 148.893677,331.435669 
	C149.705811,339.000214 154.564438,344.249207 161.683273,345.252747 
	C168.304489,346.186157 172.606842,344.258514 174.851974,338.692932 
	C168.117142,341.745483 161.538803,344.576202 156.775360,336.759949 
	C153.805115,331.886169 154.277298,323.148987 157.759995,319.249939 
	C163.965561,312.302429 169.530869,317.377808 175.316971,321.232483 
	C176.172546,316.213013 175.263199,313.299774 170.214371,313.141113 
	C167.237991,313.047516 164.263840,312.883026 160.495468,312.877136 
M263.521729,342.741638 
	C264.657013,343.494965 265.765106,344.844208 266.932404,344.897522 
	C271.753143,345.117584 276.594879,345.042450 281.423065,344.890137 
	C286.580048,344.727509 287.912628,342.299561 285.821686,336.796936 
	C284.237000,338.081696 282.836914,339.516418 281.172699,340.507690 
	C276.849060,343.083008 271.655853,341.852692 271.592896,338.090118 
	C271.456360,329.926392 269.501312,321.517639 274.254456,313.254608 
	C270.173706,313.254608 266.520203,313.254608 263.136200,313.254608 
	C266.687134,322.955566 266.282715,332.447693 263.521729,342.741638 
M172.331375,228.239075 
	C166.262207,226.885132 159.453583,227.630783 155.830338,220.386765 
	C154.378174,217.483429 150.170593,217.410904 147.979233,219.804016 
	C146.439209,221.485870 145.591629,224.958969 146.179855,227.167465 
	C147.116180,230.683029 150.393951,231.186829 153.951752,230.453262 
	C156.506393,229.926529 159.253708,229.844543 161.852371,230.131577 
	C166.128174,230.603882 170.341049,231.626175 174.609406,232.201797 
	C175.524582,232.325211 176.563278,231.532806 177.545074,231.162292 
	C176.729156,230.343811 175.987366,229.424454 175.066940,228.748215 
	C174.585526,228.394516 173.790314,228.467957 172.331375,228.239075 
M185.469452,87.541191 
	C187.107544,88.458725 188.646118,89.806427 190.402481,90.212692 
	C195.556870,91.404938 201.150330,90.936966 204.222061,97.015274 
	C205.755249,100.049118 209.740097,100.130051 211.978027,97.755211 
	C213.565002,96.071159 214.540787,92.727280 214.089569,90.463005 
	C213.429626,87.151237 209.884140,85.538353 207.022980,87.139633 
	C203.128326,89.319298 199.756393,88.024963 196.048065,87.473213 
	C192.691818,86.973846 189.248276,87.061295 185.469452,87.541191 
M251.417435,140.265457 
	C249.912277,135.731461 248.407120,131.197449 246.901962,126.663437 
	C246.286896,126.768219 245.671829,126.873001 245.056747,126.977783 
	C244.983353,128.020416 244.611526,129.153275 244.894180,130.088287 
	C245.652985,132.598434 246.851959,134.977631 247.579819,137.494507 
	C248.550186,140.850037 250.256180,144.019287 247.382935,147.733414 
	C246.370346,149.042358 247.304031,153.015167 248.660126,154.742264 
	C251.032333,157.763458 255.520157,157.121185 257.751617,154.167923 
	C259.959473,151.245865 259.016357,147.432724 255.818542,145.061813 
	C254.286194,143.925720 253.156693,142.246307 251.417435,140.265457 
M230.024979,218.193954 
	C231.126892,215.579437 231.814392,212.668732 233.423843,210.416992 
	C236.113052,206.654617 239.391449,203.313400 242.421829,199.794891 
	C241.926376,199.303940 241.430939,198.812988 240.935486,198.322037 
	C239.289948,199.815903 237.560349,201.228149 236.015182,202.819489 
	C231.983765,206.971466 229.071930,212.509140 221.825821,212.245651 
	C220.545120,212.199081 217.894775,215.740631 218.100479,217.339050 
	C218.370544,219.437454 220.472702,222.184509 222.456848,222.978470 
	C225.746841,224.294998 228.543671,222.459961 230.024979,218.193954 
M125.141602,117.676636 
	C125.461891,117.296280 125.766060,116.900879 126.104973,116.537910 
	C129.064758,113.368225 130.607391,108.802055 136.770386,109.397041 
	C139.065506,109.618622 143.533722,106.847313 142.646118,102.207474 
	C141.950607,98.571884 139.502441,96.548790 135.850464,97.237091 
	C131.756897,98.008629 130.113861,100.916458 130.316360,105.119652 
	C130.371735,106.268913 129.393143,107.602814 128.603729,108.633453 
	C125.898911,112.164825 123.067322,115.599113 120.284081,119.070427 
	C120.684990,119.497398 121.085899,119.924370 121.486816,120.351349 
	C122.563721,119.648766 123.640625,118.946182 125.141602,117.676636 
z"/>
<path fill="#0C41C4" opacity="1.000000" stroke="none" 
	d="
M186.658356,114.109474 
	C198.978561,116.568245 209.519958,122.087830 217.777588,132.618988 
	C217.484711,137.482895 218.997635,140.297562 223.510864,141.019470 
	C223.789978,142.635895 223.908737,144.300125 224.374130,145.860992 
	C227.481125,156.281296 226.986420,166.538025 222.847275,177.264282 
	C218.566910,179.269333 217.427383,182.215134 218.056732,186.118881 
	C209.688049,195.306488 200.023438,202.230408 186.539200,203.659485 
	C182.646530,201.177200 179.579880,201.750504 176.566833,203.888199 
	C163.532181,202.575043 153.627838,195.602768 144.746368,186.006317 
	C146.120789,180.702194 143.410446,178.735382 139.190170,177.802643 
	C139.300354,177.163818 139.675446,176.427673 139.481766,175.900482 
	C135.324692,164.585495 135.953110,153.273285 139.610565,141.443695 
	C144.867706,139.505676 146.091415,136.319504 144.117676,131.661270 
	C145.106796,131.161133 146.353088,130.893021 147.045624,130.125320 
	C154.764481,121.568726 164.321930,116.437668 176.287231,114.473068 
	C180.313538,117.964050 183.521759,117.007942 186.658356,114.109474 
M194.971802,195.823212 
	C211.574112,189.013901 221.184967,174.633667 220.375916,157.812317 
	C219.557678,140.799774 208.495102,126.447945 192.683807,121.886475 
	C176.504120,117.218727 159.424973,123.062935 149.698471,136.595322 
	C140.068451,149.993484 140.091782,168.479431 149.755768,181.994812 
	C159.714493,195.922455 176.652603,201.286758 194.971802,195.823212 
z"/>
<path fill="#0C3FC1" opacity="1.000000" stroke="none" 
	d="
M203.053421,314.968872 
	C208.197052,316.369324 211.375961,320.576355 211.895462,326.670593 
	C212.544952,334.289368 209.441147,340.486816 203.433670,343.239197 
	C196.959976,346.205200 190.267639,344.809814 183.691406,344.750916 
	C186.774658,334.657928 187.017258,325.228546 184.440887,315.130310 
	C190.722870,314.679260 196.888153,314.824066 203.053421,314.968872 
M194.570526,315.385681 
	C191.360809,315.599670 191.061646,317.828979 191.092316,320.341278 
	C191.155136,325.483856 190.982269,330.639618 191.314987,335.763458 
	C191.448761,337.823547 192.518677,341.456268 193.401215,341.530334 
	C196.130463,341.759521 199.653717,341.458466 201.640030,339.847931 
	C206.562561,335.856750 206.593903,329.974457 205.334900,324.264313 
	C204.186386,319.055359 200.899094,315.842957 194.570526,315.385681 
z"/>
<path fill="#0B3DBC" opacity="1.000000" stroke="none" 
	d="
M243.058731,328.025970 
	C241.029831,332.987793 239.000931,337.949615 236.972031,342.911407 
	C236.385605,343.037476 235.799164,343.163513 235.212738,343.289551 
	C232.260437,336.623047 229.308136,329.956512 226.355835,323.290009 
	C226.080170,323.398376 225.804520,323.506714 225.528870,323.615082 
	C225.528870,330.258850 225.528870,336.902649 225.528870,344.278473 
	C223.844116,344.376190 221.711823,344.499878 219.233566,344.643616 
	C222.405197,334.196014 222.622192,324.384399 219.950348,314.358093 
	C224.074936,311.818207 227.547058,312.733826 229.868408,317.649017 
	C232.175827,322.534668 234.132996,327.585754 236.785553,333.842255 
	C238.566467,330.767670 239.739655,328.742249 241.280945,326.412048 
	C241.649063,326.107300 242.024048,326.115112 242.071548,326.392883 
	C242.432281,327.122437 242.745499,327.574188 243.058731,328.025970 
z"/>
<path fill="#0B3DBC" opacity="1.000000" stroke="none" 
	d="
M160.892090,312.813782 
	C164.263840,312.883026 167.237991,313.047516 170.214371,313.141113 
	C175.263199,313.299774 176.172546,316.213013 175.316971,321.232483 
	C169.530869,317.377808 163.965561,312.302429 157.759995,319.249939 
	C154.277298,323.148987 153.805115,331.886169 156.775360,336.759949 
	C161.538803,344.576202 168.117142,341.745483 174.851974,338.692932 
	C172.606842,344.258514 168.304489,346.186157 161.683273,345.252747 
	C154.564438,344.249207 149.705811,339.000214 148.893677,331.435669 
	C147.940704,322.559296 151.917557,316.197815 160.892090,312.813782 
z"/>
<path fill="#0B3DBD" opacity="1.000000" stroke="none" 
	d="
M263.713562,342.376953 
	C266.282715,332.447693 266.687134,322.955566 263.136200,313.254608 
	C266.520203,313.254608 270.173706,313.254608 274.254456,313.254608 
	C269.501312,321.517639 271.456360,329.926392 271.592896,338.090118 
	C271.655853,341.852692 276.849060,343.083008 281.172699,340.507690 
	C282.836914,339.516418 284.237000,338.081696 285.821686,336.796936 
	C287.912628,342.299561 286.580048,344.727509 281.423065,344.890137 
	C276.594879,345.042450 271.753143,345.117584 266.932404,344.897522 
	C265.765106,344.844208 264.657013,343.494965 263.713562,342.376953 
z"/>
<path fill="#0173BB" opacity="1.000000" stroke="none" 
	d="
M257.856171,205.012100 
	C251.242096,201.274933 244.628036,197.537750 238.200500,193.365509 
	C238.915741,191.552017 239.444427,190.173584 240.259003,188.580505 
	C246.229034,187.520523 250.706085,184.726212 254.004654,180.029221 
	C260.676178,180.082764 262.137939,181.540924 261.569794,188.471298 
	C258.535217,189.868362 254.433273,192.269318 253.462265,191.352859 
	C249.200714,187.330826 246.104187,190.543961 242.203506,191.600739 
	C248.842194,197.325119 253.565399,197.546005 261.980499,192.858063 
	C265.039764,192.916412 268.098999,192.974777 271.128113,193.518524 
	C270.624023,194.431198 270.150055,194.858459 269.676086,195.285736 
	C264.943329,196.151794 260.210571,197.017853 254.182556,198.120926 
	C256.239624,200.030624 257.126556,200.854034 258.083038,202.639328 
	C258.053772,204.071518 257.954987,204.541809 257.856171,205.012100 
z"/>
<path fill="#0170B8" opacity="1.000000" stroke="none" 
	d="
M102.988564,202.966049 
	C108.405312,199.548767 113.822052,196.131485 119.120728,192.359604 
	C119.002647,192.005005 118.977654,192.049332 118.977654,192.049332 
	C119.947800,191.980759 120.917946,191.912186 122.413719,192.098267 
	C124.409813,192.544006 125.880280,192.735092 127.350746,192.926178 
	C126.741470,195.839767 126.003326,198.734619 125.575821,201.674637 
	C125.353020,203.206924 125.135017,205.148331 125.855072,206.333923 
	C128.163010,210.133957 128.017029,213.541138 124.275017,215.846512 
	C120.385025,218.243042 117.321190,216.413010 115.207474,211.948349 
	C116.172905,209.344101 116.768745,206.383133 118.365852,205.672501 
	C123.166809,203.536377 122.418861,199.751251 122.931152,195.557526 
	C117.913963,197.069778 114.724136,199.130325 113.836182,204.192123 
	C113.172821,207.973618 111.493599,211.576874 110.015976,214.995026 
	C109.715408,212.996155 109.665588,211.261780 109.615776,209.527405 
	C109.654068,209.184601 109.692352,208.841797 110.030518,208.131332 
	C110.345306,207.202927 110.360229,206.642197 110.375153,206.081451 
	C110.438202,205.640564 110.501251,205.199661 110.868958,204.333130 
	C110.844666,203.423401 110.515724,202.939331 110.186783,202.455246 
	C108.520340,203.357880 106.853905,204.260498 104.567673,205.026093 
	C103.628113,204.248047 103.308342,203.607040 102.988564,202.966049 
z"/>
<path fill="#0C3FC1" opacity="1.000000" stroke="none" 
	d="
M82.955505,344.840576 
	C82.223152,344.811157 81.490814,344.781708 80.169449,344.633362 
	C79.027039,344.479675 78.473648,344.444885 77.920265,344.410095 
	C77.768906,344.326782 77.617538,344.243469 77.211746,343.741333 
	C76.925751,342.862030 76.894196,342.401489 76.862640,341.940979 
	C78.003929,340.496918 79.145233,339.052887 80.744873,337.159363 
	C81.398712,335.976349 81.594208,335.242798 81.789719,334.509277 
	C81.947105,333.866852 82.104485,333.224457 82.723816,332.139587 
	C83.719337,329.957336 84.252892,328.217499 84.786438,326.477661 
	C85.333710,324.544250 85.880974,322.610840 86.857819,320.174011 
	C87.445663,318.932922 87.603920,318.195282 87.762177,317.457642 
	C88.258095,316.373627 88.754013,315.289612 89.984871,314.060394 
	C91.344322,313.851807 91.968834,313.788391 92.593346,313.725037 
	C93.439148,314.798157 94.284943,315.871307 95.152184,317.657654 
	C96.557335,321.927368 97.941048,325.483826 99.324760,329.040314 
	C99.940094,330.611206 100.555435,332.182068 101.171082,334.424500 
	C101.575966,335.744202 101.980530,336.392426 102.385094,337.040619 
	C103.195793,338.394684 104.006500,339.748718 104.943924,341.794556 
	C105.052330,343.018768 105.034019,343.551178 105.015701,344.083618 
	C102.950844,344.237946 100.885979,344.392273 98.433609,344.052917 
	C97.496460,341.693848 96.946823,339.828522 96.397186,337.963196 
	C96.124069,337.106537 95.850945,336.249878 95.174751,334.870483 
	C94.494469,333.242096 94.218468,332.136169 93.939796,331.030914 
	C93.039749,327.461151 92.138725,323.891632 91.238083,320.322021 
	C90.523277,320.386627 89.808472,320.451263 89.093658,320.515869 
	C88.204651,325.220581 87.315636,329.925323 86.426613,334.630035 
	C85.624290,336.844391 84.821968,339.058716 84.080345,341.922974 
	C83.745865,343.328766 83.350685,344.084686 82.955505,344.840576 
z"/>
<path fill="#0172BA" opacity="1.000000" stroke="none" 
	d="
M237.305054,119.093674 
	C237.376938,118.614632 237.448822,118.135590 237.879944,117.238831 
	C238.262772,116.247223 238.286377,115.673340 238.309998,115.099449 
	C237.493912,112.810097 236.065308,110.522194 236.059906,108.230927 
	C236.055740,106.469246 237.843018,104.703323 239.666168,102.934486 
	C241.784882,102.904381 243.071075,102.879082 244.357269,102.853775 
	C245.274521,103.497292 246.191772,104.140816 247.357300,105.369232 
	C246.638672,108.379456 246.337051,112.029846 244.573257,112.987663 
	C240.243301,115.339035 240.590851,118.872932 240.103165,122.942398 
	C244.823685,121.577888 248.402634,120.041557 249.034866,114.684387 
	C249.434982,111.294075 250.882523,108.027382 252.034180,105.092773 
	C252.620041,106.542160 253.032013,107.604027 253.444000,108.665894 
	C253.088654,110.501442 252.733292,112.336990 252.207565,114.760963 
	C252.705658,115.563858 253.374115,115.778313 254.042572,115.992767 
	C254.628006,115.594696 255.213455,115.196609 256.510834,115.007370 
	C257.647888,115.696228 258.072968,116.176239 258.498047,116.656250 
	C252.615784,120.051468 246.733521,123.446678 240.272095,126.764160 
	C238.896957,124.155510 238.101013,121.624596 237.305054,119.093674 
z"/>
<path fill="#0172B5" opacity="1.000000" stroke="none" 
	d="
M119.025085,191.993042 
	C117.469406,190.881744 115.230652,190.123764 114.449844,188.612503 
	C112.793251,185.406158 111.714127,181.858124 110.738876,178.355347 
	C109.768471,174.869995 109.186951,171.567856 105.650780,169.243484 
	C102.878830,167.421448 102.799988,164.036148 104.929779,161.273071 
	C106.983696,158.608429 109.776489,157.735352 112.843765,159.513428 
	C115.762238,161.205292 117.662346,164.428268 115.670364,167.012161 
	C111.587646,172.308044 114.215424,177.020172 115.613716,181.955933 
	C116.507271,185.110031 117.655579,188.191956 118.833664,191.677795 
	C118.977654,192.049332 119.002647,192.005005 119.025085,191.993042 
z"/>
<path fill="#0175B9" opacity="1.000000" stroke="none" 
	d="
M172.734100,228.293793 
	C173.790314,228.467957 174.585526,228.394516 175.066940,228.748215 
	C175.987366,229.424454 176.729156,230.343811 177.545074,231.162292 
	C176.563278,231.532806 175.524582,232.325211 174.609406,232.201797 
	C170.341049,231.626175 166.128174,230.603882 161.852371,230.131577 
	C159.253708,229.844543 156.506393,229.926529 153.951752,230.453262 
	C150.393951,231.186829 147.116180,230.683029 146.179855,227.167465 
	C145.591629,224.958969 146.439209,221.485870 147.979233,219.804016 
	C150.170593,217.410904 154.378174,217.483429 155.830338,220.386765 
	C159.453583,227.630783 166.262207,226.885132 172.734100,228.293793 
z"/>
<path fill="#0C3FC1" opacity="1.000000" stroke="none" 
	d="
M243.297302,327.757935 
	C242.745499,327.574188 242.432281,327.122437 242.194366,326.054565 
	C242.443268,324.517120 242.616882,323.595764 242.790497,322.674408 
	C243.854675,315.613190 248.602478,310.759766 253.785339,313.704803 
	C253.375443,318.970337 252.676346,323.998077 252.680634,329.025177 
	C252.684784,333.895233 253.412186,338.764709 253.897522,344.532623 
	C252.250748,344.532623 249.893692,344.532623 247.230255,343.894043 
	C246.844238,342.687317 246.764603,342.119171 246.684967,341.551025 
	C246.955032,335.823639 247.225098,330.096283 247.636169,323.650757 
	C247.145248,322.651398 246.513275,322.370148 245.881287,322.088928 
	C245.099472,323.889252 244.317673,325.689575 243.297302,327.757935 
z"/>
<path fill="#0172B5" opacity="1.000000" stroke="none" 
	d="
M185.656342,87.215591 
	C189.248276,87.061295 192.691818,86.973846 196.048065,87.473213 
	C199.756393,88.024963 203.128326,89.319298 207.022980,87.139633 
	C209.884140,85.538353 213.429626,87.151237 214.089569,90.463005 
	C214.540787,92.727280 213.565002,96.071159 211.978027,97.755211 
	C209.740097,100.130051 205.755249,100.049118 204.222061,97.015274 
	C201.150330,90.936966 195.556870,91.404938 190.402481,90.212692 
	C188.646118,89.806427 187.107544,88.458725 185.656342,87.215591 
z"/>
<path fill="#0051A4" opacity="1.000000" stroke="none" 
	d="
M96.875885,145.256851 
	C93.675423,143.479034 90.449486,141.745209 87.281975,139.910492 
	C84.379913,138.229523 81.730583,136.756668 77.959686,137.964905 
	C74.667152,139.019897 71.618690,136.778870 71.353508,133.565445 
	C71.165970,131.292740 72.666389,128.055130 74.492065,126.638908 
	C77.113022,124.605751 81.281151,125.512215 82.085564,128.612854 
	C83.746704,135.015686 89.128326,136.485092 93.630249,139.303375 
	C94.617874,139.921661 95.565048,140.604568 96.740601,141.950439 
	C96.925537,143.514389 96.900711,144.385620 96.875885,145.256851 
z"/>
<path fill="#0049A1" opacity="1.000000" stroke="none" 
	d="
M269.890564,195.550522 
	C270.150055,194.858459 270.624023,194.431198 271.423157,193.648407 
	C274.245087,194.586365 276.773010,195.823730 279.231140,197.186905 
	C282.614044,199.062836 285.486267,201.556381 290.133972,199.979645 
	C293.067200,198.984543 296.486603,201.164322 296.436340,204.649628 
	C296.403076,206.952988 294.698303,210.404312 292.839996,211.179443 
	C290.983521,211.953781 286.151672,210.502518 285.828156,209.219269 
	C284.173431,202.654739 278.432617,201.209579 273.881592,198.227951 
	C272.632172,197.409378 271.364410,196.618759 269.890564,195.550522 
z"/>
<path fill="#0296D6" opacity="1.000000" stroke="none" 
	d="
M239.973129,188.795151 
	C239.444427,190.173584 238.915741,191.552017 238.017822,193.078201 
	C235.632751,192.167938 233.698212,190.882233 231.575256,190.124237 
	C229.888931,189.522141 227.829041,189.013260 226.187546,189.438293 
	C222.837173,190.305817 220.448441,189.463989 218.288040,186.443314 
	C217.427383,182.215134 218.566910,179.269333 222.747131,177.700867 
	C223.926285,177.713348 225.285690,177.528290 225.793137,178.099747 
	C229.982101,182.817123 234.140747,179.939056 238.900696,178.408600 
	C240.003113,178.284973 240.531769,178.002945 241.060425,177.720886 
	C242.097824,177.503754 243.135223,177.286636 244.622986,177.678986 
	C245.115158,178.661560 245.156982,179.034683 244.872635,179.586563 
	C239.557266,181.166931 234.568100,182.568542 228.839050,184.177994 
	C232.469147,187.254700 234.776291,191.328781 239.973129,188.795151 
z"/>
<path fill="#00479F" opacity="1.000000" stroke="none" 
	d="
M105.304352,221.276031 
	C102.822197,222.900482 100.135498,224.289642 97.917374,226.217834 
	C95.842400,228.021591 94.510986,230.696777 92.397453,232.435516 
	C90.317879,234.146301 87.507111,236.390854 85.315453,236.106033 
	C83.463547,235.865372 80.759277,232.319046 80.792358,230.273926 
	C80.824036,228.315536 84.448174,224.474213 85.541519,224.787064 
	C92.984787,226.916916 97.547287,221.305939 103.740219,219.403656 
	C104.547806,220.241638 104.926079,220.758835 105.304352,221.276031 
z"/>
<path fill="#0C3FC1" opacity="1.000000" stroke="none" 
	d="
M141.811493,332.958069 
	C140.777863,338.203583 137.993866,342.078918 132.554260,343.811646 
	C132.022873,342.795807 131.932465,342.189026 132.023438,341.303192 
	C136.914078,335.584290 137.000168,329.223969 135.306992,322.815796 
	C133.610886,316.396484 130.866928,314.816803 124.051147,314.946411 
	C123.997284,314.369934 123.975754,314.139343 123.985596,313.715942 
	C124.090424,313.271973 124.139732,313.016174 124.164925,312.755737 
	C124.583511,312.613159 125.002098,312.470612 125.960564,312.484619 
	C127.309563,312.523743 128.118683,312.406311 128.927811,312.288879 
	C129.376221,312.346130 129.824615,312.403381 130.763428,312.837952 
	C132.003021,313.356354 132.752228,313.497406 133.501450,313.638428 
	C140.682159,316.867371 142.529343,322.915222 141.947540,330.696838 
	C141.729294,331.841980 141.770386,332.400024 141.811493,332.958069 
z"/>
<path fill="#017BC3" opacity="1.000000" stroke="none" 
	d="
M251.631088,140.539215 
	C253.156693,142.246307 254.286194,143.925720 255.818542,145.061813 
	C259.016357,147.432724 259.959473,151.245865 257.751617,154.167923 
	C255.520157,157.121185 251.032333,157.763458 248.660126,154.742264 
	C247.304031,153.015167 246.370346,149.042358 247.382935,147.733414 
	C250.256180,144.019287 248.550186,140.850037 247.579819,137.494507 
	C246.851959,134.977631 245.652985,132.598434 244.894180,130.088287 
	C244.611526,129.153275 244.983353,128.020416 245.056747,126.977783 
	C245.671829,126.873001 246.286896,126.768219 246.901962,126.663437 
	C248.407120,131.197449 249.912277,135.731461 251.631088,140.539215 
z"/>
<path fill="#0B3DBD" opacity="1.000000" stroke="none" 
	d="
M123.954216,313.908691 
	C123.975754,314.139343 123.997284,314.369934 123.844116,315.200745 
	C118.246567,320.722717 116.611404,328.347931 119.371262,335.844391 
	C121.634857,341.992889 125.585846,343.810760 131.842056,341.582214 
	C131.932465,342.189026 132.022873,342.795807 132.205475,343.854095 
	C132.297684,344.305573 132.350662,344.356689 132.006653,344.311768 
	C131.103058,344.533813 130.543457,344.800751 129.983841,345.067657 
	C128.268295,345.123230 126.552757,345.178802 124.169937,344.896851 
	C122.853172,344.469086 122.203690,344.378876 121.554207,344.288666 
	C112.133530,341.925995 108.146530,324.263885 117.684395,316.131165 
	C118.677139,315.284668 119.766541,314.551514 121.552231,313.785736 
	C122.846985,313.840027 123.400597,313.874359 123.954216,313.908691 
z"/>
<path fill="#0296D6" opacity="1.000000" stroke="none" 
	d="
M127.623756,192.677994 
	C125.880280,192.735092 124.409813,192.544006 122.806427,192.041656 
	C122.673508,191.730392 122.700050,191.718918 123.022186,191.764160 
	C123.918213,191.310547 124.492096,190.811691 125.065979,190.312836 
	C128.528229,187.571243 133.661942,186.556488 134.141525,180.711060 
	C134.229630,179.637070 136.899063,178.774857 138.783585,177.808777 
	C143.410446,178.735382 146.120789,180.702194 144.411591,185.873001 
	C142.067139,188.593231 139.750305,190.972244 137.687836,193.554428 
	C137.058380,194.342499 137.128555,195.689346 136.430298,197.226746 
	C135.116333,198.475143 134.250397,199.277084 133.384460,200.079025 
	C133.450974,199.635193 133.517487,199.191345 133.933350,198.350967 
	C134.332199,197.334473 134.381683,196.714508 134.431183,196.094559 
	C134.849106,194.002136 135.267014,191.909698 136.038055,188.049194 
	C132.603394,189.897293 130.250076,191.163544 127.623756,192.677994 
z"/>
<path fill="#017BC3" opacity="1.000000" stroke="none" 
	d="
M229.939697,218.575729 
	C228.543671,222.459961 225.746841,224.294998 222.456848,222.978470 
	C220.472702,222.184509 218.370544,219.437454 218.100479,217.339050 
	C217.894775,215.740631 220.545120,212.199081 221.825821,212.245651 
	C229.071930,212.509140 231.983765,206.971466 236.015182,202.819489 
	C237.560349,201.228149 239.289948,199.815903 240.935486,198.322037 
	C241.430939,198.812988 241.926376,199.303940 242.421829,199.794891 
	C239.391449,203.313400 236.113052,206.654617 233.423843,210.416992 
	C231.814392,212.668732 231.126892,215.579437 229.939697,218.575729 
z"/>
<path fill="#017BC3" opacity="1.000000" stroke="none" 
	d="
M124.929565,117.960121 
	C123.640625,118.946182 122.563721,119.648766 121.486816,120.351349 
	C121.085899,119.924370 120.684990,119.497398 120.284081,119.070427 
	C123.067322,115.599113 125.898911,112.164825 128.603729,108.633453 
	C129.393143,107.602814 130.371735,106.268913 130.316360,105.119652 
	C130.113861,100.916458 131.756897,98.008629 135.850464,97.237091 
	C139.502441,96.548790 141.950607,98.571884 142.646118,102.207474 
	C143.533722,106.847313 139.065506,109.618622 136.770386,109.397041 
	C130.607391,108.802055 129.064758,113.368225 126.104973,116.537910 
	C125.766060,116.900879 125.461891,117.296280 124.929565,117.960121 
z"/>
<path fill="#0296D6" opacity="1.000000" stroke="none" 
	d="
M176.439941,204.257660 
	C179.579880,201.750504 182.646530,201.177200 186.104553,203.714905 
	C186.095779,210.473785 190.524323,215.020584 192.527283,220.143646 
	C188.841705,217.911346 186.168015,215.721405 183.494308,213.531464 
	C182.801422,214.020264 182.108521,214.509064 181.415619,214.997864 
	C182.342911,218.238022 183.270203,221.478165 183.947784,224.984467 
	C182.528961,225.485428 181.359848,225.720215 180.190720,225.955017 
	C180.103546,223.175354 180.179123,220.377075 179.864029,217.623505 
	C179.693420,216.132538 179.272903,214.211533 178.242050,213.363693 
	C175.160904,210.829544 174.785294,208.017899 176.439941,204.257660 
z"/>
<path fill="#0296D6" opacity="1.000000" stroke="none" 
	d="
M186.811584,113.712563 
	C183.521759,117.007942 180.313538,117.964050 176.666687,114.312225 
	C176.105591,112.703476 175.818939,111.250359 175.861542,109.349525 
	C176.043015,108.230194 175.895218,107.558563 175.747421,106.886940 
	C174.952240,106.098824 174.157074,105.310715 173.272186,103.948692 
	C173.756821,102.932487 174.331177,102.490189 175.196152,102.225540 
	C176.571991,103.241356 177.657211,104.079529 178.742432,104.917702 
	C179.222687,104.712860 179.702957,104.508018 180.183212,104.303177 
	C179.803955,101.169952 179.424698,98.036728 179.050507,94.535645 
	C179.047867,93.188843 179.040161,92.209900 179.271118,91.161865 
	C179.509766,91.092766 179.999252,91.007347 180.217712,91.236061 
	C181.248505,91.652161 182.060852,91.839539 182.873199,92.026917 
	C182.960846,94.507057 182.759888,97.042381 183.220444,99.451218 
	C183.648178,101.688324 184.951309,103.744087 185.558701,105.964569 
	C186.214920,108.363632 186.511414,110.861107 186.811584,113.712563 
z"/>
<path fill="#0052A8" opacity="1.000000" stroke="none" 
	d="
M269.306122,177.190247 
	C272.651123,178.399033 275.953461,179.754242 279.361206,180.747803 
	C280.816742,181.172180 282.533844,181.077805 284.059540,180.808350 
	C287.886841,180.132431 290.760834,181.244095 291.760193,185.107224 
	C292.663757,188.600235 291.280304,191.384384 287.678802,192.490189 
	C283.746796,193.697464 281.635193,191.528412 279.865143,188.236954 
	C278.715515,186.099228 276.887177,184.261032 275.117828,182.540665 
	C273.381256,180.852173 271.334808,179.482407 269.295685,177.602386 
	C269.167023,177.232010 269.306122,177.190247 269.306122,177.190247 
z"/>
<path fill="#00479F" opacity="1.000000" stroke="none" 
	d="
M165.266098,57.678322 
	C165.234940,53.154537 166.255997,48.654678 162.160248,44.760517 
	C159.807755,42.523815 160.620468,38.619034 163.504456,36.969139 
	C165.387573,35.891838 168.715149,35.789379 170.666519,36.742752 
	C173.635162,38.193150 174.888901,42.214230 172.538925,44.380638 
	C167.759491,48.786755 169.535126,54.132942 168.481384,59.612465 
	C167.626022,59.990562 167.210907,59.928596 166.781845,59.580559 
	C166.267303,58.755764 165.766708,58.217041 165.266098,57.678322 
z"/>
<path fill="#0056A6" opacity="1.000000" stroke="none" 
	d="
M105.306732,116.420570 
	C101.403709,115.909042 97.329048,115.913795 93.661301,114.694519 
	C91.420807,113.949715 88.840820,111.635139 88.139885,109.467331 
	C87.129936,106.343788 89.327553,103.204758 92.621506,103.043327 
	C94.922417,102.930565 99.060692,104.631210 99.365250,106.132942 
	C100.288681,110.686287 103.702667,112.080490 106.674927,114.754211 
	C106.159386,115.701996 105.733063,116.061287 105.306732,116.420570 
z"/>
<path fill="#0059A7" opacity="1.000000" stroke="none" 
	d="
M258.879547,116.571480 
	C258.072968,116.176239 257.647888,115.696228 256.853302,114.906006 
	C259.313995,112.048775 262.768616,110.388184 263.885376,105.931816 
	C264.678833,102.765511 268.594666,101.719490 271.290619,103.580109 
	C273.176453,104.881630 274.855927,107.975372 274.814056,110.235039 
	C274.747314,113.837341 271.669220,115.145187 268.095276,115.299324 
	C265.138947,115.426819 262.204956,116.071297 258.879547,116.571480 
z"/>
<path fill="#000E16" opacity="1.000000" stroke="none" 
	d="
M184.197495,224.718307 
	C183.270203,221.478165 182.342911,218.238022 181.415619,214.997864 
	C182.108521,214.509064 182.801422,214.020264 183.494308,213.531464 
	C186.168015,215.721405 188.841705,217.911346 191.975967,220.325500 
	C192.436523,220.549698 192.552887,220.834000 192.687912,221.155884 
	C193.170837,221.695084 193.518738,221.912399 194.000671,222.427948 
	C194.657684,223.085098 195.180679,223.444016 195.745941,224.113022 
	C196.539017,225.125595 197.289825,225.828079 198.040634,226.530563 
	C200.746735,228.190170 202.694641,230.240524 201.423737,233.913635 
	C199.772186,233.123978 198.356232,231.275299 197.184875,231.419083 
	C192.498093,231.994446 190.016083,228.925629 187.112335,226.324432 
	C186.307220,225.603195 185.178009,225.243744 184.197495,224.718307 
z"/>
<path fill="#00479F" opacity="1.000000" stroke="none" 
	d="
M83.864914,121.324181 
	C80.351418,119.843575 77.414520,117.116043 72.814148,118.727737 
	C69.681549,119.825218 67.060020,117.395332 66.384659,114.066887 
	C65.719452,110.788490 67.036064,108.169212 70.354347,107.012337 
	C73.657761,105.860657 77.043358,106.955193 77.724113,110.038712 
	C78.703743,114.475929 81.873322,116.079651 84.886505,118.693039 
	C84.491386,119.930771 84.178154,120.627480 83.864914,121.324181 
z"/>
<path fill="#00479F" opacity="1.000000" stroke="none" 
	d="
M264.867310,93.370789 
	C267.478485,91.028648 270.236420,89.136696 271.252991,85.157204 
	C272.069855,81.959557 275.984833,80.929733 278.677979,82.680183 
	C280.593079,83.924904 282.714294,87.480507 282.176880,89.204849 
	C281.506500,91.355804 277.885834,94.362762 276.093872,94.028206 
	C272.055603,93.274231 269.037628,94.503708 265.416107,95.766586 
	C264.958252,94.689316 264.912781,94.030052 264.867310,93.370789 
z"/>
<path fill="#0172BA" opacity="1.000000" stroke="none" 
	d="
M183.947784,224.984467 
	C185.178009,225.243744 186.307220,225.603195 187.112335,226.324432 
	C190.016083,228.925629 192.498093,231.994446 197.184875,231.419083 
	C198.356232,231.275299 199.772186,233.123978 201.330414,234.315399 
	C202.149368,241.111511 200.243866,243.185120 193.239807,242.637527 
	C191.772934,240.112335 190.420624,238.018494 190.134171,235.787766 
	C189.592102,231.566376 185.774414,228.137772 181.628387,229.038101 
	C180.965973,229.054443 180.587570,229.063187 180.209152,229.071915 
	C180.115341,228.286011 180.021545,227.500122 180.059235,226.334625 
	C181.359848,225.720215 182.528961,225.485428 183.947784,224.984467 
z"/>
<path fill="#00479F" opacity="1.000000" stroke="none" 
	d="
M197.658875,268.378693 
	C198.397949,269.751740 198.945023,271.281708 199.913788,272.467041 
	C202.358841,275.458771 202.850693,278.416565 200.001007,281.297241 
	C197.371048,283.955780 194.349274,284.037903 191.620285,281.514069 
	C188.678406,278.793335 188.509720,275.215393 191.411850,272.796539 
	C195.654617,269.260315 193.256393,264.788239 194.544373,260.375977 
	C195.358093,259.986420 195.754913,260.039978 196.107208,260.512848 
	C196.594742,263.414307 197.126816,265.896515 197.658875,268.378693 
z"/>
<path fill="#001018" opacity="1.000000" stroke="none" 
	d="
M240.259003,188.580505 
	C234.776291,191.328781 232.469147,187.254700 228.839050,184.177994 
	C234.568100,182.568542 239.557266,181.166931 245.259430,179.595184 
	C248.654861,178.782944 251.337311,178.140854 254.019775,177.498764 
	C254.016525,178.131332 254.013275,178.763916 254.007339,179.712860 
	C250.706085,184.726212 246.229034,187.520523 240.259003,188.580505 
z"/>
<path fill="#0053AC" opacity="1.000000" stroke="none" 
	d="
M151.565384,71.041412 
	C150.634277,66.559723 152.432388,61.411243 147.633362,57.777069 
	C146.767242,57.121178 147.516022,52.815563 148.808792,51.282036 
	C149.945160,49.934067 153.329971,49.141068 154.916382,49.865837 
	C156.736221,50.697243 158.033936,53.333851 158.830368,55.459099 
	C159.219482,56.497433 157.957443,58.154545 156.859558,59.870613 
	C155.527847,61.489285 154.363754,62.696301 154.124603,64.064949 
	C153.728561,66.331467 153.928192,68.702080 153.587646,71.018417 
	C152.720764,71.019135 152.143082,71.030273 151.565384,71.041412 
z"/>
<path fill="#005AAC" opacity="1.000000" stroke="none" 
	d="
M258.034637,205.247726 
	C257.954987,204.541809 258.053772,204.071518 258.331055,202.901138 
	C261.649170,203.476486 264.433624,205.206589 268.351501,203.989532 
	C271.421722,203.035812 274.206726,205.043655 274.832672,208.603180 
	C275.428101,211.989029 274.049896,214.588104 270.717102,215.603394 
	C267.154755,216.688614 264.802795,215.044754 263.031464,211.835709 
	C261.760559,209.533218 259.842468,207.587982 258.034637,205.247726 
z"/>
<path fill="#005AAC" opacity="1.000000" stroke="none" 
	d="
M102.593727,203.040405 
	C103.308342,203.607040 103.628113,204.248047 104.232269,205.122192 
	C103.018326,207.382156 101.226387,209.258057 100.089310,211.470535 
	C98.308960,214.934692 95.722626,216.616440 92.068344,215.369293 
	C88.970245,214.311951 87.211739,211.751297 88.101570,208.323425 
	C89.086823,204.527985 91.804077,203.263565 95.668381,203.626434 
	C97.810310,203.827591 100.019836,203.308960 102.593727,203.040405 
z"/>
<path fill="#0171B3" opacity="1.000000" stroke="none" 
	d="
M97.105637,145.550018 
	C96.900711,144.385620 96.925537,143.514389 96.939896,142.205078 
	C99.457100,141.852905 102.104973,142.469696 104.490906,141.929520 
	C113.146683,139.969894 121.714630,137.622360 130.618729,135.735703 
	C131.103836,136.840347 131.285919,137.630478 131.468002,138.420593 
	C130.330399,138.791733 129.192780,139.162872 127.701447,139.284103 
	C127.249146,138.990829 127.150558,138.947464 127.051971,138.904099 
	C127.112099,139.108887 127.172234,139.313675 127.232368,139.518463 
	C118.498833,142.029892 109.784187,144.611954 101.006882,146.959763 
	C99.957664,147.240402 98.567520,146.246399 97.105637,145.550018 
z"/>
<path fill="#000E16" opacity="1.000000" stroke="none" 
	d="
M179.045441,94.903503 
	C179.424698,98.036728 179.803955,101.169952 180.183212,104.303177 
	C179.702957,104.508018 179.222687,104.712860 178.742432,104.917702 
	C177.657211,104.079529 176.571991,103.241356 175.079727,101.914749 
	C169.283493,96.157120 163.894287,90.887939 158.505096,85.618752 
	C159.208817,85.407188 159.912537,85.195633 161.432404,85.026283 
	C164.694061,85.692703 167.139542,86.316910 169.929047,87.165573 
	C173.197189,89.894531 176.121323,92.399017 179.045441,94.903503 
z"/>
<path fill="#0296D6" opacity="1.000000" stroke="none" 
	d="
M223.894440,140.974365 
	C218.997635,140.297562 217.484711,137.482895 218.066437,132.828979 
	C220.059402,130.547089 222.049118,128.645630 224.440094,126.367188 
	C225.007034,125.354752 225.172729,124.719315 225.338409,124.083870 
	C225.679291,122.641319 226.020187,121.198761 226.778900,119.311279 
	C228.019897,118.796745 228.843063,118.727135 229.666229,118.657532 
	C229.561676,119.259666 229.457123,119.861794 228.987244,120.866669 
	C228.099426,123.203270 227.576920,125.137131 227.054413,127.070999 
	C227.107147,127.460831 227.159882,127.850662 227.152023,128.887543 
	C230.397110,131.420410 228.759583,134.661163 229.226761,137.325027 
	C227.577179,138.526443 225.927597,139.727859 223.894440,140.974365 
z"/>
<path fill="#004D9D" opacity="1.000000" stroke="none" 
	d="
M211.445755,253.914124 
	C212.445908,255.566696 213.325302,257.308929 214.471695,258.852936 
	C216.761917,261.937500 217.265137,264.979919 214.247986,267.764465 
	C211.521530,270.280670 208.416397,270.373871 205.778214,267.697968 
	C202.969559,264.849121 203.441895,261.768616 205.841568,258.747650 
	C206.829849,257.503510 207.513199,256.017181 208.763000,254.289276 
	C209.942444,253.929764 210.694107,253.921936 211.445755,253.914124 
z"/>
<path fill="#0052A8" opacity="1.000000" stroke="none" 
	d="
M113.096771,233.287048 
	C112.557594,234.835663 112.103485,236.420532 111.461975,237.925537 
	C110.017670,241.313858 107.326065,242.832932 103.832909,241.824371 
	C100.569969,240.882294 98.942802,238.273514 99.628601,234.871536 
	C100.370438,231.191605 103.008797,229.747147 106.658150,230.050598 
	C108.424416,230.197479 110.187775,230.379333 112.414032,230.939560 
	C112.949341,231.984848 113.023056,232.635956 113.096771,233.287048 
z"/>
<path fill="#005CB1" opacity="1.000000" stroke="none" 
	d="
M179.818085,64.842224 
	C178.833115,63.953007 177.693268,63.183842 176.893021,62.151436 
	C174.729599,59.360390 174.657761,56.039055 177.596603,54.325943 
	C179.588882,53.164585 183.188080,53.046772 185.232742,54.094082 
	C188.220261,55.624325 188.803085,59.370209 186.354141,61.789440 
	C183.486618,64.622169 183.229538,67.770653 182.867950,71.325455 
	C181.976776,69.265594 181.443909,67.143318 180.728073,64.996704 
	C180.305817,64.911858 180.063477,64.868469 179.818085,64.842224 
z"/>
<path fill="#0171B3" opacity="1.000000" stroke="none" 
	d="
M158.488708,85.553261 
	C163.894287,90.887939 169.283493,96.157120 174.789108,101.737099 
	C174.331177,102.490189 173.756821,102.932487 173.104202,103.658081 
	C166.349182,97.393555 159.131073,91.285629 153.271271,84.073982 
	C151.034805,81.321556 151.910751,76.040131 151.466827,71.476326 
	C152.143082,71.030273 152.720764,71.019135 153.634262,71.468689 
	C154.284531,76.829376 152.441605,82.465324 158.560272,85.385338 
	C158.560272,85.385338 158.472305,85.487770 158.488708,85.553261 
z"/>
<path fill="#015CAB" opacity="1.000000" stroke="none" 
	d="
M183.059875,251.983032 
	C183.946198,253.309021 184.736313,254.713272 185.738251,255.945267 
	C188.057800,258.797424 188.426544,261.686188 185.683319,264.332428 
	C183.031158,266.890839 179.961197,266.939392 177.269165,264.407257 
	C174.263916,261.580444 174.854828,258.563843 177.405838,255.675888 
	C178.252502,254.717422 179.008453,253.678833 180.275818,252.337494 
	C181.517136,251.993073 182.288498,251.988052 183.059875,251.983032 
z"/>
<path fill="#0170B8" opacity="1.000000" stroke="none" 
	d="
M113.042068,133.134064 
	C111.231407,134.993393 109.705086,137.636581 107.508942,138.433228 
	C106.073074,138.954071 102.417137,137.180161 101.981148,135.753799 
	C101.291855,133.498795 102.469551,130.673080 103.476517,127.727150 
	C107.402061,128.083893 110.708221,128.802368 113.936646,129.824921 
	C113.586624,131.130661 113.314346,132.132370 113.042068,133.134064 
z"/>
<path fill="#0053AC" opacity="1.000000" stroke="none" 
	d="
M250.846558,84.715645 
	C251.123962,83.416664 251.275330,82.074516 251.702652,80.826881 
	C252.937668,77.221001 255.580200,75.869408 259.154175,76.925812 
	C262.562073,77.933136 263.878937,80.605423 263.158813,83.950256 
	C262.367340,87.626701 259.756226,89.089912 256.085052,88.569618 
	C254.944641,88.407982 253.839920,87.994667 252.165558,87.400467 
	C251.357025,86.308113 251.101791,85.511879 250.846558,84.715645 
z"/>
<path fill="#001B2F" opacity="1.000000" stroke="none" 
	d="
M181.912384,229.030487 
	C185.774414,228.137772 189.592102,231.566376 190.134171,235.787766 
	C190.420624,238.018494 191.772934,240.112335 192.826828,242.569717 
	C194.554886,245.404556 196.100143,247.937683 197.149292,250.579300 
	C194.919495,249.813431 193.185791,248.939056 191.452087,248.064697 
	C190.373611,247.386917 189.295135,246.709137 188.363037,245.482330 
	C188.216980,243.990723 187.924561,243.048141 187.373749,241.838013 
	C183.823044,238.799133 181.220001,235.686691 181.917923,230.645325 
	C181.949982,229.893433 181.931183,229.461960 181.912384,229.030487 
z"/>
<path fill="#017BC3" opacity="1.000000" stroke="none" 
	d="
M113.437210,133.075867 
	C113.314346,132.132370 113.586624,131.130661 114.309372,129.688354 
	C116.662247,128.553055 118.564659,127.858383 121.109459,126.929146 
	C119.612434,125.568695 118.792206,124.823296 118.015572,123.793083 
	C118.344002,123.022118 118.628838,122.535957 118.913666,122.049805 
	C120.436661,122.656273 122.027283,123.133972 123.470657,123.892044 
	C129.009674,126.801208 134.049789,131.298645 140.907700,129.515015 
	C138.420197,130.593689 136.117477,131.334869 133.450806,132.071823 
	C132.600601,132.099411 132.114380,132.131241 131.628143,132.163055 
	C125.470505,127.747826 119.696632,131.324112 113.437210,133.075867 
z"/>
<path fill="#0299DA" opacity="1.000000" stroke="none" 
	d="
M133.814774,132.076050 
	C136.117477,131.334869 138.420197,130.593689 141.145874,129.743927 
	C142.305298,130.104172 143.041763,130.572968 143.947937,131.351532 
	C146.091415,136.319504 144.867706,139.505676 139.519043,141.048416 
	C136.838547,140.247009 134.483688,139.339859 131.798401,138.426666 
	C131.285919,137.630478 131.103836,136.840347 131.002823,135.807739 
	C131.269913,135.463226 131.455948,135.361176 132.265320,135.103882 
	C133.197372,133.991104 133.506073,133.033585 133.814774,132.076050 
z"/>
<path fill="#016BAC" opacity="1.000000" stroke="none" 
	d="
M133.139847,200.354614 
	C134.250397,199.277084 135.116333,198.475143 136.137360,197.470459 
	C135.211136,202.750320 134.345474,208.287354 132.980286,213.698334 
	C131.887115,218.031189 131.398178,222.835312 126.547501,225.169952 
	C126.081902,224.178146 126.025658,223.547211 125.969421,222.916260 
	C127.686523,217.536469 129.418808,212.161438 131.112915,206.774414 
	C131.752487,204.740646 132.303726,202.679092 133.139847,200.354614 
M133.363190,204.888229 
	C133.421036,204.853897 133.478882,204.819550 133.363190,204.888229 
z"/>
<path fill="#0170B8" opacity="1.000000" stroke="none" 
	d="
M169.585037,86.941116 
	C167.139542,86.316910 164.694061,85.692703 161.970398,84.904434 
	C160.629272,81.252281 161.009979,78.198624 165.027145,75.863144 
	C172.057068,76.179008 173.514786,77.953796 172.246613,84.022034 
	C170.778534,84.333786 169.642380,84.651558 168.506210,84.969330 
	C168.865814,85.626595 169.225433,86.283852 169.585037,86.941116 
z"/>
<path fill="#001320" opacity="1.000000" stroke="none" 
	d="
M110.266739,215.259506 
	C111.493599,211.576874 113.172821,207.973618 113.836182,204.192123 
	C114.724136,199.130325 117.913963,197.069778 122.931152,195.557526 
	C122.418861,199.751251 123.166809,203.536377 118.365852,205.672501 
	C116.768745,206.383133 116.172905,209.344101 115.039085,211.644348 
	C114.134163,213.322189 113.408386,214.709396 112.459152,215.921631 
	C111.334793,217.357437 110.017754,218.642365 108.488113,219.701538 
	C108.806793,218.602356 109.421608,217.794312 110.106339,216.703308 
	C110.206413,216.033401 110.236580,215.646454 110.266739,215.259506 
z"/>
<path fill="#00192C" opacity="1.000000" stroke="none" 
	d="
M172.578506,84.028061 
	C173.514786,77.953796 172.057068,76.179008 165.322723,75.654572 
	C166.156845,74.604294 167.407669,73.600838 169.126205,72.447449 
	C172.986496,75.328484 176.379059,78.359451 179.840424,81.810944 
	C179.939240,85.156761 179.969238,88.082054 179.999252,91.007347 
	C179.999252,91.007347 179.509766,91.092766 179.031555,90.902435 
	C176.561737,88.484093 174.570114,86.256081 172.578506,84.028061 
z"/>
<path fill="#016AB9" opacity="1.000000" stroke="none" 
	d="
M179.771637,81.390427 
	C176.379059,78.359451 172.986496,75.328484 169.286469,72.170181 
	C164.963547,69.118782 165.618484,64.800484 165.857178,60.286110 
	C166.348938,59.879326 166.572357,59.872978 166.795776,59.866631 
	C167.210907,59.928596 167.626022,59.990562 168.355637,60.060699 
	C167.376205,67.061752 172.325607,70.750092 176.917572,75.377106 
	C179.851898,77.733238 180.680237,76.119972 180.820251,73.990334 
	C181.016083,71.011459 180.895981,68.011803 180.911041,65.021042 
	C181.443909,67.143318 181.976776,69.265594 182.736633,71.683311 
	C183.018890,74.036354 183.074188,76.093948 182.660049,78.606949 
	C181.384293,79.838379 180.577972,80.614410 179.771637,81.390427 
z"/>
<path fill="#001018" opacity="1.000000" stroke="none" 
	d="
M261.990295,192.449234 
	C253.565399,197.546005 248.842194,197.325119 242.203506,191.600739 
	C246.104187,190.543961 249.200714,187.330826 253.462265,191.352859 
	C254.433273,192.269318 258.535217,189.868362 261.541687,188.879211 
	C261.924896,189.856247 261.962494,190.948334 261.990295,192.449234 
z"/>
<path fill="#001320" opacity="1.000000" stroke="none" 
	d="
M251.860291,104.705246 
	C250.882523,108.027382 249.434982,111.294075 249.034866,114.684387 
	C248.402634,120.041557 244.823685,121.577888 240.103165,122.942398 
	C240.590851,118.872932 240.243301,115.339035 244.573257,112.987663 
	C246.337051,112.029846 246.638672,108.379456 247.570557,105.563759 
	C250.210068,107.153351 249.899597,103.836098 251.418594,103.349991 
	C251.788269,103.919525 251.824280,104.312386 251.860291,104.705246 
z"/>
<path fill="#0171B3" opacity="1.000000" stroke="none" 
	d="
M118.670624,121.823082 
	C118.628838,122.535957 118.344002,123.022118 117.667465,123.712555 
	C112.128387,120.593803 107.744713,124.131058 103.118858,125.492813 
	C102.030533,125.685493 100.942207,125.878174 99.513733,125.755005 
	C101.102821,124.072266 103.032059,122.705391 104.961296,121.338509 
	C105.944939,120.813721 106.928581,120.288925 108.707939,119.339607 
	C107.377968,118.371986 106.458992,117.703392 105.423370,116.727684 
	C105.733063,116.061287 106.159386,115.701996 106.853958,115.028847 
	C110.890671,117.008781 114.659126,119.302567 118.670624,121.823082 
z"/>
<path fill="#020D28" opacity="1.000000" stroke="none" 
	d="
M86.910187,334.733093 
	C87.315636,329.925323 88.204651,325.220581 89.093658,320.515869 
	C89.808472,320.451263 90.523277,320.386627 91.238083,320.322021 
	C92.138725,323.891632 93.039749,327.461151 93.939796,331.030914 
	C94.218468,332.136169 94.494469,333.242096 94.904869,334.663147 
	C92.489952,334.931091 89.941849,334.883636 86.910187,334.733093 
z"/>
<path fill="#016BAC" opacity="1.000000" stroke="none" 
	d="
M229.494171,137.103546 
	C228.759583,134.661163 230.397110,131.420410 227.104279,129.181030 
	C231.526047,129.875610 234.022934,127.491508 235.703156,123.888962 
	C236.310303,122.587189 236.522430,121.101181 237.109924,119.396461 
	C238.101013,121.624596 238.896957,124.155510 239.951233,126.905197 
	C238.228195,128.460022 236.044388,129.579788 234.321945,131.192398 
	C232.565628,132.836670 231.262894,134.965424 229.494171,137.103546 
z"/>
<path fill="#001320" opacity="1.000000" stroke="none" 
	d="
M103.141327,126.003365 
	C107.744713,124.131058 112.128387,120.593803 117.623871,123.997360 
	C118.792206,124.823296 119.612434,125.568695 121.109459,126.929146 
	C118.564659,127.858383 116.662247,128.553055 114.387115,129.384293 
	C110.708221,128.802368 107.402061,128.083893 103.690765,127.447060 
	C103.245026,127.190453 103.204407,126.852180 103.141327,126.003365 
z"/>
<path fill="#016AB9" opacity="1.000000" stroke="none" 
	d="
M211.542938,253.461700 
	C210.694107,253.921936 209.942444,253.929764 208.909103,253.925125 
	C208.421509,248.375381 208.215591,242.838104 208.130493,236.555130 
	C208.633041,235.490585 209.014771,235.171707 209.396484,234.852844 
	C210.186478,236.248825 211.577209,237.611862 211.655838,239.046814 
	C211.910126,243.686752 211.682236,248.353119 211.542938,253.461700 
z"/>
<path fill="#0059A7" opacity="1.000000" stroke="none" 
	d="
M104.576851,121.371368 
	C103.032059,122.705391 101.102821,124.072266 99.099365,125.772522 
	C96.489113,126.039528 93.805061,126.470848 91.456940,125.772568 
	C88.898827,125.011856 86.652336,123.203247 84.067451,121.587830 
	C84.178154,120.627480 84.491386,119.930771 85.087593,118.968292 
	C91.039284,123.819504 97.378830,124.263069 104.576851,121.371368 
z"/>
<path fill="#0173BB" opacity="1.000000" stroke="none" 
	d="
M254.411377,177.415894 
	C251.337311,178.140854 248.654861,178.782944 245.585617,179.416412 
	C245.156982,179.034683 245.115158,178.661560 245.023132,177.727509 
	C250.385422,175.732559 255.735947,173.680283 261.236908,173.128998 
	C263.931610,172.858948 266.905792,175.377686 269.529785,176.912247 
	C269.306122,177.190247 269.167023,177.232010 269.175293,177.272079 
	C267.361328,176.931946 265.539032,176.551727 263.206787,175.905716 
	C262.137299,175.781235 261.577820,175.922577 261.018341,176.063904 
	C258.946564,176.486954 256.874756,176.909988 254.411377,177.415894 
z"/>
<path fill="#0172B5" opacity="1.000000" stroke="none" 
	d="
M229.850220,118.451096 
	C228.843063,118.727135 228.019897,118.796745 226.964828,118.987686 
	C228.863342,111.156013 230.993774,103.203003 233.675293,95.258469 
	C234.428543,96.178482 234.630722,97.090034 234.614044,98.287292 
	C233.634109,101.861687 232.873016,105.150360 232.111938,108.439041 
	C231.989731,108.982849 231.867538,109.526649 231.406830,110.570251 
	C231.086182,111.490524 231.104019,111.911011 231.121857,112.331497 
	C231.175751,112.702553 231.229660,113.073608 230.939178,113.982063 
	C230.470581,115.222443 230.346359,115.925415 230.222137,116.628395 
	C230.159500,117.167152 230.096863,117.705917 229.850220,118.451096 
z"/>
<path fill="#0059A7" opacity="1.000000" stroke="none" 
	d="
M252.034180,105.092773 
	C251.824280,104.312386 251.788269,103.919525 251.685577,103.237457 
	C253.892944,97.280365 259.916351,96.620529 264.507812,93.469330 
	C264.912781,94.030052 264.958252,94.689316 265.031677,95.844070 
	C260.288483,99.268471 254.618317,101.348686 253.686066,108.398155 
	C253.032013,107.604027 252.620041,106.542160 252.034180,105.092773 
z"/>
<path fill="#015CAB" opacity="1.000000" stroke="none" 
	d="
M125.606331,222.929916 
	C126.025658,223.547211 126.081902,224.178146 126.199371,225.281921 
	C122.108414,228.211670 117.956207,230.668625 113.450386,233.206299 
	C113.023056,232.635956 112.949341,231.984848 112.809799,230.844589 
	C116.910400,227.884811 121.076820,225.414200 125.606331,222.929916 
z"/>
<path fill="#000E16" opacity="1.000000" stroke="none" 
	d="
M158.646179,84.995697 
	C152.441605,82.465324 154.284531,76.829376 153.923462,71.479111 
	C153.928192,68.702080 153.728561,66.331467 154.124603,64.064949 
	C154.363754,62.696301 155.527847,61.489285 156.670013,60.191364 
	C155.683044,68.449661 154.303711,76.726151 158.646179,84.995697 
z"/>
<path fill="#0056A6" opacity="1.000000" stroke="none" 
	d="
M234.832916,98.001579 
	C234.630722,97.090034 234.428543,96.178482 233.960236,95.021141 
	C237.063065,92.761101 240.432037,90.746857 244.420670,88.877899 
	C245.364182,89.696655 245.688019,90.370125 246.011841,91.043594 
	C242.674255,93.205101 239.336685,95.366615 235.554443,97.754181 
	C235.109772,97.980225 234.832916,98.001579 234.832916,98.001579 
z"/>
<path fill="#017BC3" opacity="1.000000" stroke="none" 
	d="
M181.867065,230.965759 
	C181.220001,235.686691 183.823044,238.799133 186.981232,241.804962 
	C185.721252,242.878540 183.334976,238.869247 183.070404,243.021301 
	C183.066498,244.723953 183.062592,246.426590 182.649811,248.430069 
	C181.502518,245.489044 180.764114,242.247177 180.025726,239.005325 
	C180.013336,236.607544 180.000961,234.209763 180.391037,231.369843 
	C181.151352,230.940384 181.509216,230.953079 181.867065,230.965759 
z"/>
<path fill="#017BC3" opacity="1.000000" stroke="none" 
	d="
M179.840424,81.810951 
	C180.577972,80.614410 181.384293,79.838379 182.554749,79.036423 
	C182.984680,83.048035 183.050461,87.085594 182.994720,91.575027 
	C182.060852,91.839539 181.248505,91.652161 180.217712,91.236061 
	C179.969238,88.082054 179.939240,85.156761 179.840424,81.810951 
z"/>
<path fill="#093196" opacity="1.000000" stroke="none" 
	d="
M202.824417,314.695282 
	C196.888153,314.824066 190.722870,314.679260 184.234314,314.811432 
	C184.012604,314.334930 184.160873,312.918488 184.209122,312.921875 
	C190.342667,313.353943 196.468857,313.890442 202.824417,314.695282 
z"/>
<path fill="#016AB9" opacity="1.000000" stroke="none" 
	d="
M191.445770,248.473495 
	C193.185791,248.939056 194.919495,249.813431 197.010925,250.838715 
	C197.353455,253.738174 197.338242,256.486725 197.043121,259.652344 
	C196.559402,260.077484 196.355576,260.085541 196.151749,260.093567 
	C195.754913,260.039978 195.358093,259.986420 194.661041,259.928833 
	C193.387024,256.244019 192.413239,252.563156 191.445770,248.473495 
z"/>
<path fill="#014D8D" opacity="1.000000" stroke="none" 
	d="
M179.844513,239.360809 
	C180.764114,242.247177 181.502518,245.489044 182.606873,248.853546 
	C183.058105,249.729584 183.143417,250.482956 183.144287,251.609680 
	C182.288498,251.988052 181.517136,251.993073 180.360138,252.000153 
	C179.870789,247.906906 179.767044,243.811584 179.844513,239.360809 
z"/>
<path fill="#014D8D" opacity="1.000000" stroke="none" 
	d="
M246.359467,90.999626 
	C245.688019,90.370125 245.364182,89.696655 244.747864,88.770241 
	C246.358444,87.305527 248.261520,86.093773 250.505569,84.798828 
	C251.101791,85.511879 251.357025,86.308113 251.761444,87.381027 
	C250.176117,88.757019 248.441605,89.856339 246.359467,90.999626 
z"/>
<path fill="#014D8D" opacity="1.000000" stroke="none" 
	d="
M180.728058,64.996704 
	C180.895981,68.011803 181.016083,71.011459 180.820251,73.990334 
	C180.680237,76.119972 179.851898,77.733238 177.157532,75.631516 
	C177.801971,73.915833 178.950775,72.557800 179.369339,71.003159 
	C179.814148,69.351097 179.566605,67.512634 179.719727,65.298889 
	C180.063477,64.868469 180.305817,64.911858 180.728058,64.996704 
z"/>
<path fill="#0A38AC" opacity="1.000000" stroke="none" 
	d="
M99.352875,328.679504 
	C97.941048,325.483826 96.557335,321.927368 95.177475,317.963928 
	C96.581223,321.144196 97.981110,324.731445 99.352875,328.679504 
z"/>
<path fill="#016BAC" opacity="1.000000" stroke="none" 
	d="
M234.614044,98.287292 
	C234.832916,98.001579 235.109772,97.980225 235.243301,97.944664 
	C234.388992,101.195915 233.401169,104.482735 232.262634,108.104294 
	C232.873016,105.150360 233.634109,101.861687 234.614044,98.287292 
z"/>
<path fill="#001B2F" opacity="1.000000" stroke="none" 
	d="
M196.107208,260.512848 
	C196.355576,260.085541 196.559402,260.077484 197.066925,260.111511 
	C197.541443,262.601166 197.712250,265.048767 197.770966,267.937561 
	C197.126816,265.896515 196.594742,263.414307 196.107208,260.512848 
z"/>
<path fill="#014D8D" opacity="1.000000" stroke="none" 
	d="
M110.015984,214.995026 
	C110.236580,215.646454 110.206413,216.033401 109.731110,216.681686 
	C108.535484,216.970062 107.784996,216.997116 107.034500,217.024155 
	C107.734985,214.695175 108.435486,212.366196 109.375870,209.782318 
	C109.665588,211.261780 109.715408,212.996155 110.015984,214.995026 
z"/>
<path fill="#0170B8" opacity="1.000000" stroke="none" 
	d="
M106.752441,217.144501 
	C107.784996,216.997116 108.535484,216.970062 109.661201,216.964661 
	C109.421608,217.794312 108.806793,218.602356 108.113892,219.711685 
	C107.318741,220.379288 106.601669,220.745605 105.594475,221.193970 
	C104.926079,220.758835 104.547806,220.241638 104.101273,219.405823 
	C104.845467,218.479752 105.657921,217.872299 106.752441,217.144501 
z"/>
<path fill="#0A38AC" opacity="1.000000" stroke="none" 
	d="
M96.477264,338.366760 
	C96.946823,339.828522 97.496460,341.693848 98.071396,343.912659 
	C97.583572,342.434204 97.070450,340.602295 96.477264,338.366760 
z"/>
<path fill="#014D8D" opacity="1.000000" stroke="none" 
	d="
M183.423340,243.028473 
	C183.334976,238.869247 185.721252,242.878540 187.239624,242.072510 
	C187.924561,243.048141 188.216980,243.990723 188.226562,245.231552 
	C186.554550,244.698410 185.165405,243.867020 183.423340,243.028473 
z"/>
<path fill="#016BAC" opacity="1.000000" stroke="none" 
	d="
M227.213562,126.782578 
	C227.576920,125.137131 228.099426,123.203270 228.866531,121.066139 
	C228.531662,122.739975 227.952194,124.617065 227.213562,126.782578 
z"/>
<path fill="#017BC3" opacity="1.000000" stroke="none" 
	d="
M198.543091,226.694702 
	C197.289825,225.828079 196.539017,225.125595 195.940186,223.458557 
	C196.208755,222.056503 196.325348,221.619003 196.441940,221.181519 
	C197.309799,223.073959 198.177673,224.966400 198.543091,226.694702 
z"/>
<path fill="#0A38AC" opacity="1.000000" stroke="none" 
	d="
M84.530106,326.706848 
	C84.252892,328.217499 83.719337,329.957336 82.917145,331.867615 
	C83.190254,330.337402 83.732010,328.636719 84.530106,326.706848 
z"/>
<path fill="#020D28" opacity="1.000000" stroke="none" 
	d="
M83.156921,345.055511 
	C83.350685,344.084686 83.745865,343.328766 84.218811,342.255798 
	C84.751167,342.686279 85.205750,343.433838 85.660339,344.181427 
	C84.893005,344.544434 84.125664,344.907440 83.156921,345.055511 
z"/>
<path fill="#017BC3" opacity="1.000000" stroke="none" 
	d="
M209.180771,234.478516 
	C209.014771,235.171707 208.633041,235.490585 208.041870,236.120636 
	C206.709915,235.201004 205.587372,233.970184 204.464844,232.739365 
	C204.779022,232.358322 205.093201,231.977295 205.407379,231.596268 
	C206.593277,232.432236 207.779160,233.268204 209.180771,234.478516 
z"/>
<path fill="#016BAC" opacity="1.000000" stroke="none" 
	d="
M244.160080,102.623947 
	C243.071075,102.879082 241.784882,102.904381 240.015106,102.877472 
	C241.008652,102.681557 242.485779,102.537842 244.160080,102.623947 
z"/>
<path fill="#093196" opacity="1.000000" stroke="none" 
	d="
M128.731781,312.105255 
	C128.118683,312.406311 127.309563,312.523743 126.294022,312.477417 
	C126.903648,312.183014 127.719696,312.052307 128.731781,312.105255 
z"/>
<path fill="#0171B3" opacity="1.000000" stroke="none" 
	d="
M133.450806,132.071823 
	C133.506073,133.033585 133.197372,133.991104 132.574631,135.028961 
	C132.161072,134.360138 132.061554,133.610992 131.795090,132.512451 
	C132.114380,132.131241 132.600601,132.099411 133.450806,132.071823 
z"/>
<path fill="#093196" opacity="1.000000" stroke="none" 
	d="
M242.530060,322.870270 
	C242.616882,323.595764 242.443268,324.517120 242.146851,325.776794 
	C242.024048,326.115112 241.649063,326.107300 241.462311,326.092896 
	C241.606918,325.074371 241.938278,324.070251 242.530060,322.870270 
z"/>
<path fill="#0296D6" opacity="1.000000" stroke="none" 
	d="
M181.917923,230.645340 
	C181.509216,230.953079 181.151352,230.940384 180.525208,230.939697 
	C180.179810,230.441574 180.102737,229.931473 180.117401,229.246643 
	C180.587570,229.063187 180.965973,229.054443 181.628387,229.038101 
	C181.931183,229.461960 181.949982,229.893433 181.917923,230.645340 
z"/>
<path fill="#093196" opacity="1.000000" stroke="none" 
	d="
M246.192627,322.300354 
	C246.513275,322.370148 247.145248,322.651398 247.694443,323.226318 
	C247.242432,323.183899 246.873184,322.847839 246.192627,322.300354 
z"/>
<path fill="#00192C" opacity="1.000000" stroke="none" 
	d="
M166.781845,59.580555 
	C166.572357,59.872978 166.348938,59.879326 165.793762,59.831894 
	C165.341782,59.257313 165.221527,58.736519 165.183685,57.947021 
	C165.766708,58.217041 166.267303,58.755764 166.781845,59.580555 
z"/>
<path fill="#020D28" opacity="1.000000" stroke="none" 
	d="
M76.605179,342.004272 
	C76.894196,342.401489 76.925751,342.862030 76.962967,343.668701 
	C76.761650,343.365784 76.554680,342.716675 76.605179,342.004272 
z"/>
<path fill="#016BAC" opacity="1.000000" stroke="none" 
	d="
M238.147888,115.304413 
	C238.286377,115.673340 238.262772,116.247223 238.065933,116.923035 
	C237.923737,116.519753 237.954773,116.014565 238.147888,115.304413 
z"/>
<path fill="#093196" opacity="1.000000" stroke="none" 
	d="
M130.180573,345.181793 
	C130.543457,344.800751 131.103058,344.533813 131.981598,344.338745 
	C131.659470,344.705688 131.018387,345.000824 130.180573,345.181793 
z"/>
<path fill="#093196" opacity="1.000000" stroke="none" 
	d="
M246.475204,341.699554 
	C246.764603,342.119171 246.844238,342.687317 246.929016,343.685577 
	C246.711258,343.359833 246.488342,342.603943 246.475204,341.699554 
z"/>
<path fill="#0A38AC" opacity="1.000000" stroke="none" 
	d="
M105.293289,344.065552 
	C105.034019,343.551178 105.052330,343.018768 105.107285,342.088013 
	C105.286232,342.475616 105.428551,343.261597 105.293289,344.065552 
z"/>
<path fill="#093196" opacity="1.000000" stroke="none" 
	d="
M141.967865,332.801880 
	C141.770386,332.400024 141.729294,331.841980 141.872894,331.135193 
	C142.079819,331.539551 142.102036,332.092651 141.967865,332.801880 
z"/>
<path fill="#0A38AC" opacity="1.000000" stroke="none" 
	d="
M102.406548,336.746643 
	C101.980530,336.392426 101.575966,335.744202 101.198837,334.783691 
	C101.626846,335.131836 102.027420,335.792267 102.406548,336.746643 
z"/>
<path fill="#0A38AC" opacity="1.000000" stroke="none" 
	d="
M81.560822,334.694702 
	C81.594208,335.242798 81.398712,335.976349 80.961891,336.873993 
	C80.924355,336.318787 81.128143,335.599457 81.560822,334.694702 
z"/>
<path fill="#093196" opacity="1.000000" stroke="none" 
	d="
M121.690643,344.493591 
	C122.203690,344.378876 122.853172,344.469086 123.752090,344.782349 
	C123.276711,344.903076 122.551895,344.800781 121.690643,344.493591 
z"/>
<path fill="#020D28" opacity="1.000000" stroke="none" 
	d="
M78.004822,344.644531 
	C78.473648,344.444885 79.027039,344.479675 79.806244,344.687897 
	C79.384499,344.867218 78.736938,344.873108 78.004822,344.644531 
z"/>
<path fill="#016BAC" opacity="1.000000" stroke="none" 
	d="
M134.222900,196.293915 
	C134.381683,196.714508 134.332199,197.334473 134.088333,198.050110 
	C133.934174,197.594940 133.974411,197.044098 134.222900,196.293915 
z"/>
<path fill="#0059A7" opacity="1.000000" stroke="none" 
	d="
M253.699280,115.828552 
	C253.374115,115.778313 252.705658,115.563858 252.065338,115.083389 
	C252.514328,115.099709 252.935165,115.382019 253.699280,115.828552 
z"/>
<path fill="#016BAC" opacity="1.000000" stroke="none" 
	d="
M230.419037,116.465302 
	C230.346359,115.925415 230.470581,115.222443 230.831177,114.246231 
	C230.917007,114.749405 230.766479,115.525803 230.419037,116.465302 
z"/>
<path fill="#0172B5" opacity="1.000000" stroke="none" 
	d="
M225.141998,124.285072 
	C225.172729,124.719315 225.007034,125.354752 224.599136,126.029167 
	C224.553146,125.540848 224.749359,125.013557 225.141998,124.285072 
z"/>
<path fill="#016BAC" opacity="1.000000" stroke="none" 
	d="
M231.217773,112.121384 
	C231.104019,111.911011 231.086182,111.490524 231.099777,110.878983 
	C231.192047,111.095703 231.252869,111.503487 231.217773,112.121384 
z"/>
<path fill="#0171B3" opacity="1.000000" stroke="none" 
	d="
M175.685699,107.257141 
	C175.895218,107.558563 176.043015,108.230194 176.002991,109.004288 
	C175.751450,108.613609 175.687698,108.120476 175.685699,107.257141 
z"/>
<path fill="#001018" opacity="1.000000" stroke="none" 
	d="
M261.184296,176.233124 
	C261.577820,175.922577 262.137299,175.781235 262.840942,175.847382 
	C262.440155,176.170670 261.895203,176.286499 261.184296,176.233124 
z"/>
<path fill="#0173BB" opacity="1.000000" stroke="none" 
	d="
M240.856964,177.619659 
	C240.531769,178.002945 240.003113,178.284973 239.275452,178.410156 
	C239.602142,178.008362 240.127823,177.763397 240.856964,177.619659 
z"/>
<path fill="#0170B8" opacity="1.000000" stroke="none" 
	d="
M124.776764,190.316956 
	C124.492096,190.811691 123.918213,191.310547 123.035599,191.760208 
	C123.313766,191.247696 123.900650,190.784378 124.776764,190.316956 
z"/>
<path fill="#0A38AC" opacity="1.000000" stroke="none" 
	d="
M87.534607,317.648315 
	C87.603920,318.195282 87.445663,318.932922 87.062424,319.850891 
	C86.993973,319.300476 87.150513,318.569733 87.534607,317.648315 
z"/>
<path fill="#014D8D" opacity="1.000000" stroke="none" 
	d="
M110.312683,202.887360 
	C110.515724,202.939331 110.844666,203.423401 110.994339,204.022308 
	C110.689568,203.864578 110.564079,203.592026 110.312683,202.887360 
z"/>
<path fill="#014D8D" opacity="1.000000" stroke="none" 
	d="
M110.184990,206.210220 
	C110.360229,206.642197 110.345306,207.202927 110.127975,207.890320 
	C109.948647,207.457642 109.971733,206.898315 110.184990,206.210220 
z"/>
<path fill="#0296D6" opacity="1.000000" stroke="none" 
	d="
M196.332901,220.953400 
	C196.325348,221.619003 196.208755,222.056503 195.897919,223.148468 
	C195.180679,223.444016 194.657684,223.085098 194.039841,222.384247 
	C193.944992,222.042313 194.021210,221.953064 194.240021,221.737885 
	C194.654144,220.950897 194.849426,220.379089 195.044708,219.807281 
	C195.437759,220.113266 195.830811,220.419266 196.332901,220.953400 
z"/>
<path fill="#0A38AC" opacity="1.000000" stroke="none" 
	d="
M92.438637,313.514282 
	C91.968834,313.788391 91.344322,313.851807 90.249680,313.907532 
	C90.614342,313.701111 91.449135,313.502319 92.438637,313.514282 
z"/>
<path fill="#093196" opacity="1.000000" stroke="none" 
	d="
M123.985596,313.715912 
	C123.400597,313.874359 122.846985,313.840027 121.883377,313.718414 
	C122.174751,313.282623 122.876122,312.934052 123.871201,312.670624 
	C124.139732,313.016174 124.090424,313.271973 123.985596,313.715912 
z"/>
<path fill="#093196" opacity="1.000000" stroke="none" 
	d="
M133.313248,313.402649 
	C132.752228,313.497406 132.003021,313.356354 131.071228,312.984802 
	C131.634109,312.891815 132.379578,313.029327 133.313248,313.402649 
z"/>
<path fill="#0296D6" opacity="1.000000" stroke="none" 
	d="
M193.905823,222.085999 
	C193.518738,221.912399 193.170837,221.695084 192.646301,221.220062 
	C192.639404,220.069550 192.809113,219.176743 193.494034,218.941956 
	C194.013229,220.384323 194.017227,221.168701 194.021210,221.953064 
	C194.021210,221.953064 193.944992,222.042313 193.905823,222.085999 
z"/>
<path fill="#017BC3" opacity="1.000000" stroke="none" 
	d="
M194.240021,221.737885 
	C194.017227,221.168701 194.013229,220.384323 194.030518,219.207520 
	C194.338226,218.981033 194.624649,219.147018 194.977905,219.560150 
	C194.849426,220.379089 194.654144,220.950897 194.240021,221.737885 
z"/>
<path fill="#010204" opacity="1.000000" stroke="none" 
	d="
M194.590912,195.948349 
	C176.652603,201.286758 159.714493,195.922455 149.755768,181.994812 
	C140.091782,168.479431 140.068451,149.993484 149.698471,136.595322 
	C159.424973,123.062935 176.504120,117.218727 192.683807,121.886475 
	C208.495102,126.447945 219.557678,140.799774 220.375916,157.812317 
	C221.184967,174.633667 211.574112,189.013901 194.590912,195.948349 
M187.685333,163.297775 
	C188.701889,165.157913 189.679260,167.040924 190.747131,168.871109 
	C191.638000,170.397934 192.634979,171.862869 193.584961,173.355209 
	C194.134140,172.999771 194.683319,172.644333 195.232513,172.288895 
	C191.019882,162.408600 186.807251,152.528290 182.594620,142.647995 
	C181.995911,142.699234 181.397202,142.750488 180.798492,142.801743 
	C176.528961,152.668900 172.259430,162.536057 167.989899,172.403214 
	C168.611938,172.743057 169.233963,173.082886 169.856003,173.422729 
	C171.689056,170.066208 173.522125,166.709671 175.449554,163.180328 
	C179.178177,163.180328 183.001617,163.180328 187.685333,163.297775 
z"/>
<path fill="#01040C" opacity="1.000000" stroke="none" 
	d="
M194.959396,315.382385 
	C200.899094,315.842957 204.186386,319.055359 205.334900,324.264313 
	C206.593903,329.974457 206.562561,335.856750 201.640030,339.847931 
	C199.653717,341.458466 196.130463,341.759521 193.401215,341.530334 
	C192.518677,341.456268 191.448761,337.823547 191.314987,335.763458 
	C190.982269,330.639618 191.155136,325.483856 191.092316,320.341278 
	C191.061646,317.828979 191.360809,315.599670 194.959396,315.382385 
z"/>
<path fill="#000309" opacity="1.000000" stroke="none" 
	d="
M132.023438,341.303192 
	C125.585846,343.810760 121.634857,341.992889 119.371262,335.844391 
	C116.611404,328.347931 118.246567,320.722717 123.876450,315.546631 
	C130.866928,314.816803 133.610886,316.396484 135.306992,322.815796 
	C137.000168,329.223969 136.914078,335.584290 132.023438,341.303192 
z"/>
<path fill="#017BC3" opacity="1.000000" stroke="none" 
	d="
M172.246613,84.022041 
	C174.570114,86.256081 176.561737,88.484093 178.792908,90.971535 
	C179.040161,92.209900 179.047867,93.188843 179.050507,94.535645 
	C176.121323,92.399017 173.197189,89.894531 169.929047,87.165581 
	C169.225433,86.283852 168.865814,85.626595 168.506210,84.969330 
	C169.642380,84.651558 170.778534,84.333786 172.246613,84.022041 
z"/>
<path fill="#0299DA" opacity="1.000000" stroke="none" 
	d="
M127.360641,139.481659 
	C127.172234,139.313675 127.112099,139.108887 127.051971,138.904099 
	C127.150558,138.947464 127.249146,138.990829 127.482735,139.122635 
	C127.617729,139.211075 127.488907,139.444839 127.360641,139.481659 
z"/>
<path fill="#0296D6" opacity="1.000000" stroke="none" 
	d="
M133.449951,204.836716 
	C133.478882,204.819550 133.421036,204.853897 133.449951,204.836716 
z"/>
<path fill="#C8C8C8" opacity="1.000000" stroke="none" 
	d="
M187.255188,163.239044 
	C183.001617,163.180328 179.178177,163.180328 175.449554,163.180328 
	C173.522125,166.709671 171.689056,170.066208 169.856003,173.422729 
	C169.233963,173.082886 168.611938,172.743057 167.989899,172.403214 
	C172.259430,162.536057 176.528961,152.668900 180.798492,142.801743 
	C181.397202,142.750488 181.995911,142.699234 182.594620,142.647995 
	C186.807251,152.528290 191.019882,162.408600 195.232513,172.288895 
	C194.683319,172.644333 194.134140,172.999771 193.584961,173.355209 
	C192.634979,171.862869 191.638000,170.397934 190.747131,168.871109 
	C189.679260,167.040924 188.701889,165.157913 187.255188,163.239044 
M176.583771,159.933823 
	C179.914871,160.396011 183.245972,160.858185 187.614456,161.464294 
	C185.452896,156.408936 183.822144,152.595016 181.751541,147.752365 
	C179.775513,152.257248 178.276917,155.673691 176.583771,159.933823 
z"/>
<path fill="#151515" opacity="1.000000" stroke="none" 
	d="
M176.681030,159.511993 
	C178.276917,155.673691 179.775513,152.257248 181.751541,147.752365 
	C183.822144,152.595016 185.452896,156.408936 187.614456,161.464294 
	C183.245972,160.858185 179.914871,160.396011 176.681030,159.511993 
z"/>
</svg>